<?xml version="1.0" standalone="yes"?>
<svg xmlns="http://www.w3.org/2000/svg" width="561" height="182">
<path style="fill:#020a0a; stroke:none;" d="M0 0L0 182L561 182L561 0L0 0z"/>
<path style="fill:#115656; stroke:none;" d="M211 9L211 10L220 6L211 9M94 21L94 22L82 26L82 27L100 23C99.217 19.5628 100.933 15.2737 99.4383 12.2238C94.081 1.29103 77.386 15.3004 94 21M259 8L259 9L279 20L278 8L259 8M468 8L468 9L479 9L468 8M190 9L191 15L198 12L190 9M218 13L218 14L222 13L218 13M243.667 13.3333L244.333 13.6667L243.667 13.3333M353 13L345 20L343 19L342 22L360 23L353 13M247.667 14.3333L248.333 14.6667L247.667 14.3333M206.667 15.3333L207.333 15.6667L206.667 15.3333M250 15L250 16L257 18L257 17L250 15M141 20L145 22L151 20C148.385 15.5704 143.845 15.946 141 20M204 16L205 17L204 16M201 17L202 18L201 17M216 17L217 18L216 17M196 19L196 20L200 19L196 19M211 19L211 20L215 19L211 19M247 18L254 21L254 20L247 18M232 19L232 20L235 20L232 19M237 19L237 20L242 21L242 22L240 22L240 23L246 22L246 23L244 23L244 24L247 23L258 33L258 34L249 32L253 38L247 36L249 40L245 38L246 42L243 42L243 43L245 46L243 48L237 48L237 49L241 50L241 51L232 49L235 50L235 49L229 46L233 45L233 44L229 43L229 42L235 42L235 41L232 40L236 39L236 38C234.04 37.3466 233.446 37 236 37L236 36L231 36L231 35L239 34L238 30L241 25L238 26L238 30L234 29L234 26L238 24L233 23L233 24L235 25L231 26L231 27L234 27L234 28L228 28L225 31L225 32L232 31L232 32L229 32L231 35L223 34L221 36C220.641 41.1786 218.474 44.4823 214 47L215 50C211.424 51.0201 211.831 52.7822 213 56L208 55L210 53L202 51L205 50L205 49L200 49L202 44L199 45L201 40L202 40L219 29L215 26L216 29L212 27L213 30L208 27L210 31L203 28L203 27L178 33L178 34L186 33L185 35C190.093 32.341 191.784 33.4607 195 38L184 43L188 42L191 47L187 46L187 47C188.96 47.6534 189.554 48 187 48L187 49L191 49L191 52L187 52L187 53L189 52L189 53L183 54L183 55L185 56L178 61L181 60L170 63L170 64L173 63C168.876 65.7758 166.043 60.4453 162 59L164 57L161 54L164 55L163 52L168 50L165 51L165 48L161 48L161 47L168 47L166 43L162 43L162 42L174 42L174 41C166.021 36.8122 157.852 36 149 36L149 35L157 35L157 34L134 33L134 34L157 41L157 42L143 42L143 43L153 46L153 47L144 47L144 48C158.7 49.4635 160 54.0914 160 68L154 68L154 72L156 72C152.386 82.8415 146.957 77.1653 143 74L146 73L145 71L151 69L151 68L131 68C131 77.3198 127.818 94.0667 133 102L131 113L133 117L136 116L136 119L137 119L140 118L139 121L146 121L146 122L140 124L140 125L149 126L142 133L131 134L131 135L154 136L154 135L147 135L147 134L157 134L155 130L160 129L155 129L155 128L160 127L160 78L181 79L181 91L182 91C184.091 84.8484 197.553 71.0768 204.357 79.4344C207.271 83.013 205.004 93.782 204 98L210 81L214 86L217 86C219.984 80.2963 227.053 79.1303 233 78.0841C246.902 75.6383 265.061 76.6709 271 92C280.946 88.0059 267.622 77.8832 266 73L263 74L263 72C256.783 72.25 255.52 69.5652 255 64L258 65L257 62L264 58L263 54L266 55L266 54L266 53L264 54L264 53L272 49L271 46L278 49L277 46L272 46L274 42L269 39L279 42L279 41L278 39L275 37L273 39L272 39L272 35L266 35L267 32L264 33L263 29L258 28L258 27L260 26L256 23L237 19z"/>
<path style="fill:#020a0a; stroke:none;" d="M96.6667 20.3333L97.3333 20.6667L96.6667 20.3333z"/>
<path style="fill:#115656; stroke:none;" d="M193 20L194 21L193 20M219 20L219 21L222 21L219 20M272 20L274 23L273 24L269 21L269 25L272 29L266 26L266 27L289 35L290 33L274 23L291 28C287.994 23.1042 284.056 24.6015 279 25L279 24L282 23L272 20M186 22L186 23L192 22L186 22M216 21L217 22L216 21M227 21L227 22L232 22L227 21M435 23L435 24L444 24C440.966 21.2811 438.755 21.9174 435 23M134 25L145 26L145 23C140.662 22.4521 136.846 21.0578 134 25M212 22L213 23L212 22M264 22L267 25L264 22M207 23L203 25L203 26L208 24L207 23M433 23L434 24L433 23M211 24L212 25L211 24M222 24L223 25L222 24M110 27L128 26C123.802 24.2386 113.154 23.3907 110 27M189 25L190 26L189 25M208 25L209 26L208 25M351 27L351 28L360 29L360 30L330 31L330 33L347 33L347 34L326 35L327 37L316 37L316 36L319 36L319 35L306 37L306 38L316 38L316 39L312 39L312 40L319 41L319 42L312 42L312 43L315 44L315 45L304 46L304 47L327 48L327 49C317.289 49 308.888 48.7204 300 53C299.324 49.1919 294.313 53.4784 294 56L284 54C284.887 56.5233 286.037 57.6081 283 58L286 61L284 63L284 64L289 73L289 74C284.227 77.4363 284.5 85.5457 290 88L284 95L286 98L277 99C276.845 95.3899 275.483 93.9758 272 93L274 109L278 109L278 110L276 110L276 111C279.485 111.359 283.468 112.197 284 108L287 108L287 109L287 115L288 115C288.01 100.237 295.084 86.828 309 80.5178C316.613 77.0655 338.238 72.7411 344.168 81.2785C346.966 85.3068 345.564 93.4341 345 98C334.087 91.6619 320.07 90.8187 312 102L316 101L316 102C313.304 102.989 312.695 104.599 316 105L316 106L313 106L312 111L332 118L332 119L330 121L338 120L342 124L349 123L349 124L342 126L342 127L347 125L345 128L360 125L360 102L359 102L357 108L359 111C357.321 111.044 352.577 111.512 356 113L356 114L350 113L351 109L348 112L347 112L348 109L346 109L349 106L349 105C346.595 101.031 348.123 96.3545 352 94L352 90L356 90L356 86L360 88L360 63L356 64L360 62L360 51L359 51L356 56L344 56L344 55L347 53L343 53L342 51L342 50L346 50L346 49L334 48L334 47L344 46L344 43L344 42L320 41L320 40L337 41L337 40L334 38L339 38L339 37L328 37L328 36C332.8 36 353.018 32.929 352 37L369 35L369 34L355 34L355 32L372 32L372 31L366 30L366 29L372 29C368.116 23.6138 356.751 25.5972 351 27M387 29L421 31L421 30L404 28L404 25C398.364 25.0006 390.504 23.7599 387 29M185 26L186 27L185 26z"/>
<path style="fill:#020a0a; stroke:none;" d="M256.667 26.3333L257.333 26.6667L256.667 26.3333z"/>
<path style="fill:#115656; stroke:none;" d="M349 26L350 27L349 26M80 27L78 32L80 27M123 28L123 29L134 30L134 31L131 31L131 32L142 33L142 32L140 32L140 31L143 30L143 28L123 28M167 29L167 30C171.746 31.0282 180.738 31.0327 184 27L167 29M220 28L223 30L220 28M242 28L242 30L244 30L244 28L242 28M294.667 28.3333L295.333 28.6667L294.667 28.3333M189.667 29.3333L190.333 29.6667L189.667 29.3333z"/>
<path style="fill:#020a0a; stroke:none;" d="M198.667 29.3333L199.333 29.6667L198.667 29.3333M205 29L206 30L205 29M361 29L362 30L361 29z"/>
<path style="fill:#115656; stroke:none;" d="M164 32L164 33L183 31L164 32M185.667 30.3333L186.333 30.6667L185.667 30.3333z"/>
<path style="fill:#020a0a; stroke:none;" d="M195.667 30.3333L196.333 30.6667L195.667 30.3333M203 30L205 32L203 30M235 30L237 32L237 30L235 30z"/>
<path style="fill:#115656; stroke:none;" d="M245 30L248 32L248 31L245 30z"/>
<path style="fill:#020a0a; stroke:none;" d="M285 30L286 31L285 30z"/>
<path style="fill:#115656; stroke:none;" d="M384 31L384 32L404 32C398.835 28.0871 390.186 30.9959 384 31z"/>
<path style="fill:#020a0a; stroke:none;" d="M138 31L139 32L138 31M192.667 31.3333L193.333 31.6667L192.667 31.3333M201 31L203 33L201 31z"/>
<path style="fill:#115656; stroke:none;" d="M66 41L71 33C63.8706 31.8289 56.0604 38.1079 66 41M104.667 32.3333L105.333 32.6667L104.667 32.3333z"/>
<path style="fill:#020a0a; stroke:none;" d="M232 32L232 33L235 33L232 32z"/>
<path style="fill:#115656; stroke:none;" d="M240 32L241 35L242 35L240 32M301 32L301 33L305 33L301 32M306 32L306 33L310 33L306 32M100 33L101 34L100 33M100 35L102 40L96 39C97.0575 43.7618 94.5914 46.1712 92 50L139 50L139 49L132 47L132 46L135 46L135 45L131 43L134 44L124 40L132 40L132 39L126 39C123.651 30.9683 106.154 33.3719 100 35z"/>
<path style="fill:#020a0a; stroke:none;" d="M194 33L198 37L194 33M198 33L202 39L202 35L203 41L204 41L205 34L198 33z"/>
<path style="fill:#115656; stroke:none;" d="M210 33L210 36L209 36L209 34L208 34L207 40L208 40L210 39L210 33M451 33L451 35L466 35L451 33M97 34L98 35L97 34z"/>
<path style="fill:#020a0a; stroke:none;" d="M101 36L108 40L106 36L110 35L101 36z"/>
<path style="fill:#115656; stroke:none;" d="M188 34L188 35L193 37L193 36L188 34M215 34L214 37L215 37L215 34M218 34L217 36L218 34M383 34L383 35L402 35L383 34M95 35L96 36L95 35z"/>
<path style="fill:#020a0a; stroke:none;" d="M141 35L141 36L144 36L141 35z"/>
<path style="fill:#115656; stroke:none;" d="M212.333 35.6667L212.667 36.3333L212.333 35.6667M369 35L369 36L374 36L369 35M424 35L422 39L430 39L430 40L425 40L425 41L434 41L434 42L431 42L433 46L422 46L422 47L425 47L428 50L428 51L420 51L420 52L423 53L423 54L419 54L422 57L422 58L418 58L418 59L422 59L422 60L419 60L423 65L420 66L420 67L431 65L432 68L438 68L434 70L434 74L434 75L440 76L440 61L438 61L443 50L443 49L440 49L440 48L450 50L449 47L455 44L445 43L445 42L453 42L453 41L438 40L438 39L445 39L445 38L428 38L428 37L431 37L424 35M92 36L93 39L94 39L92 36M98 36L99 37L98 36z"/>
<path style="fill:#020a0a; stroke:none;" d="M109 36L109 37L119 41L116 36L109 36z"/>
<path style="fill:#115656; stroke:none;" d="M127 36L128 37L127 36M219 36L220 37L219 36z"/>
<path style="fill:#020a0a; stroke:none;" d="M222 37L222 38L226 38L222 37M269 36L270 37L269 36z"/>
<path style="fill:#115656; stroke:none;" d="M356 36L356 37L360 37L356 36M377 36L377 37L381 37L377 36M451 36L451 37L465 37L451 36M90 37L88 38L84 41L86 45C88.2976 42.474 92.2266 40.4195 90 37M97 37L98 38L97 37M115 37L116 38L115 37z"/>
<path style="fill:#020a0a; stroke:none;" d="M124 37L125 38L124 37M199.333 37.6667L199.667 38.3333L199.333 37.6667z"/>
<path style="fill:#115656; stroke:none;" d="M238.667 37.3333L239.333 37.6667L238.667 37.3333M95 38L96 39L95 38z"/>
<path style="fill:#020a0a; stroke:none;" d="M195.667 38.3333L196.333 38.6667L195.667 38.3333z"/>
<path style="fill:#115656; stroke:none;" d="M243 38L244 39L243 38z"/>
<path style="fill:#020a0a; stroke:none;" d="M267.667 38.3333L268.333 38.6667L267.667 38.3333z"/>
<path style="fill:#115656; stroke:none;" d="M358 38L359 39L358 38M381 38L381 39L389 39L381 38z"/>
<path style="fill:#020a0a; stroke:none;" d="M98 39L101 43L98 39M192.667 39.3333L193.333 39.6667L192.667 39.3333M316 39L316 40L319 40L316 39z"/>
<path style="fill:#115656; stroke:none;" d="M94 40L95 41L94 40z"/>
<path style="fill:#020a0a; stroke:none;" d="M102 40L103 41L102 40z"/>
<path style="fill:#115656; stroke:none;" d="M132 40L133 41L132 40M135 41L135 42L139 40L135 41z"/>
<path style="fill:#020a0a; stroke:none;" d="M195 40L197 42L195 40M224 40L225 41L224 40M226.667 40.3333L227.333 40.6667L226.667 40.3333M249 40L250 41L249 40z"/>
<path style="fill:#115656; stroke:none;" d="M341.667 40.3333L342.333 40.6667L341.667 40.3333M364 40L364 41L369 42L364 40z"/>
<path style="fill:#020a0a; stroke:none;" d="M85 41L86 42L85 41z"/>
<path style="fill:#115656; stroke:none;" d="M92 41L94 45L95 45L92 41M95 41L96 42L95 41z"/>
<path style="fill:#020a0a; stroke:none;" d="M191.667 41.3333L192.333 41.6667L191.667 41.3333M199.333 41.6667L199.667 42.3333L199.333 41.6667M251 41L252 42L251 41z"/>
<path style="fill:#115656; stroke:none;" d="M310.667 41.3333L311.333 41.6667L310.667 41.3333M370 41L371 42L370 41M96 42L97 43L96 42z"/>
<path style="fill:#020a0a; stroke:none;" d="M103 42L104 43L103 42M113 42L114 43L113 42z"/>
<path style="fill:#115656; stroke:none;" d="M217 42L218 43L217 42z"/>
<path style="fill:#020a0a; stroke:none;" d="M223 42L224 43L223 42M226 42L227 43L226 42M247 42L249 44L247 42z"/>
<path style="fill:#115656; stroke:none;" d="M295 42L294 44L296 44L295 42M83 43L80 47L83 43M89 43L88 45L89 43z"/>
<path style="fill:#020a0a; stroke:none;" d="M129 43L130 44L129 43z"/>
<path style="fill:#115656; stroke:none;" d="M203 43L204 44L203 43z"/>
<path style="fill:#020a0a; stroke:none;" d="M443.667 43.3333L444.333 43.6667L443.667 43.3333M98 44L99 45L98 44z"/>
<path style="fill:#115656; stroke:none;" d="M136 44L139 46L136 44z"/>
<path style="fill:#020a0a; stroke:none;" d="M221 44L223 46L221 44M269 44L269 45L272 45L272 44L269 44z"/>
<path style="fill:#115656; stroke:none;" d="M360 44L360 45L369 45L360 44z"/>
<path style="fill:#839b9b; stroke:none;" d="M369 44L369 45L380 45L369 44z"/>
<path style="fill:#115656; stroke:none;" d="M380 44L381 45L380 44M92 45L93 46L92 45z"/>
<path style="fill:#020a0a; stroke:none;" d="M126.667 45.3333L127.333 45.6667L126.667 45.3333z"/>
<path style="fill:#115656; stroke:none;" d="M147 45L148 46L147 45z"/>
<path style="fill:#020a0a; stroke:none;" d="M196 45L196 49L195 46L191 47L191 48L191 49L195 50L196 50L196 45z"/>
<path style="fill:#115656; stroke:none;" d="M204 45L205 46L204 45z"/>
<path style="fill:#fefefe; stroke:none;" d="M360 45L360 150L380 150L380 115L405.184 148.972L429 150C422.857 137.664 411.307 122.147 401 113L401 112C410.617 103.596 420.633 90.0668 427 79L404.184 79.6034L396.33 89L380 112L380 45L360 45z"/>
<path style="fill:#b0b9b9; stroke:none;" d="M380 45L380 112L381 112L381 66L380 45z"/>
<path style="fill:#020a0a; stroke:none;" d="M113 49L114 49L116 47L113 49M199.333 46.6667L199.667 47.3333L199.333 46.6667z"/>
<path style="fill:#115656; stroke:none;" d="M359 46L360 47L359 46z"/>
<path style="fill:#020a0a; stroke:none;" d="M440.667 46.3333L441.333 46.6667L440.667 46.3333M446 46L446 47L449 47L446 46M118 47L118 48L121 48L118 47z"/>
<path style="fill:#115656; stroke:none;" d="M184 47L185 48L184 47z"/>
<path style="fill:#020a0a; stroke:none;" d="M266 47L268 49L266 47z"/>
<path style="fill:#115656; stroke:none;" d="M72 48L73 49L72 48M77 48L78 49L77 48z"/>
<path style="fill:#020a0a; stroke:none;" d="M122 48L123 49L122 48M337 48L338 49L337 48M440 48L440 49L449 50L440 48z"/>
<path style="fill:#115656; stroke:none;" d="M80 49L81 50L80 49z"/>
<path style="fill:#020a0a; stroke:none;" d="M117 49L118 50L117 49z"/>
<path style="fill:#115656; stroke:none;" d="M273.667 49.3333L274.333 49.6667L273.667 49.3333M292.667 49.3333L293.333 49.6667L292.667 49.3333M455 49L456 50L455 49M77 50L78 51L77 50z"/>
<path style="fill:#839b9b; stroke:none;" d="M81 50L82 51L81 50z"/>
<path style="fill:#b0b9b9; stroke:none;" d="M81 60L82 60L82 51L159 51L141 50L102 50L83.3179 50.6034L81 60z"/>
<path style="fill:#020a0a; stroke:none;" d="M227 50L228 52L229 52L230 50L227 50z"/>
<path style="fill:#115656; stroke:none;" d="M294 50L294 51L298 51L294 50z"/>
<path style="fill:#020a0a; stroke:none;" d="M310 50L310 51L313 51L310 50M316 50L316 51L317 53L322 53L322 54L312 56L314 57L314 58L311 56L310 56L313 60L306 64L306 65L312 69L312 70L310 72L318 72L317 70L321 70L319 67L325 66L325 62L328 61L326 58L328 58L323 54L323 53L327 53L327 52L321 52L316 50z"/>
<path style="fill:#839b9b; stroke:none;" d="M440 50L441 51L440 50z"/>
<path style="fill:#b0b9b9; stroke:none;" d="M440 60L441 60L441 51L461 51L461 61C465.777 49.6168 448.884 45.2625 441.603 51.0278C439.254 52.8884 440.002 57.3744 440 60z"/>
<path style="fill:#839b9b; stroke:none;" d="M461 50L462 51L461 50z"/>
<path style="fill:#115656; stroke:none;" d="M506 50L508 53L506 50M66 51L67 52L66 51M75 51L74 53L75 51z"/>
<path style="fill:#fefefe; stroke:none;" d="M82 51L82 67L110 67L110 150L130 150L131 67L159 67L159 51L82 51z"/>
<path style="fill:#839b9b; stroke:none;" d="M159 51L159 54L160 54L159 51z"/>
<path style="fill:#115656; stroke:none;" d="M290 51L293 53L293 52L290 51M389 51L389 52L396 52L389 51z"/>
<path style="fill:#fefefe; stroke:none;" d="M441 51L441 150L461 150L461 51L441 51z"/>
<path style="fill:#020a0a; stroke:none;" d="M212 52L214 54L212 52M309 52L310 53L309 52M311.667 52.3333L312.333 52.6667L311.667 52.3333z"/>
<path style="fill:#115656; stroke:none;" d="M65 53L66 54L65 53M287 53L288 54L287 53z"/>
<path style="fill:#020a0a; stroke:none;" d="M299 53L298 55L299 53z"/>
<path style="fill:#115656; stroke:none;" d="M388 53L388 54L402 54L388 53M73 54L74 55L73 54z"/>
<path style="fill:#020a0a; stroke:none;" d="M206 54L207 55L206 54M260 54L262 56L260 54M357 55L359 57L359 55L357 55z"/>
<path style="fill:#115656; stroke:none;" d="M384 56L387 57L387 58L382 59L384 62C380.047 62.8602 381.024 67.4751 381 71C380.941 79.549 384.807 89.1973 384 97L389 100L395 88L398 87L397 84L405.093 79.3171L428 79L421 88L431 88C430.189 82.3917 426.744 70.8907 420 71L419 68L410 64L411 61L405 59L405 58L408 56L384 56M64 56L63 60L64 60L64 56M68 56L69 57L68 56M72 56L73 57L72 56z"/>
<path style="fill:#839b9b; stroke:none;" d="M159 56L159 68L160 68L159 56z"/>
<path style="fill:#020a0a; stroke:none;" d="M387 56L388 57L387 56z"/>
<path style="fill:#fefefe; stroke:none;" d="M66 57L66 68L77 68L77 57L66 57z"/>
<path style="fill:#b0b9b9; stroke:none;" d="M77 57L77 68L78 68L77 57z"/>
<path style="fill:#020a0a; stroke:none;" d="M184 57L185 58L184 57M349 58L349 59L354 58L349 58z"/>
<path style="fill:#115656; stroke:none;" d="M499 57L499 60L500 60L499 57M506 57L507 58L506 57z"/>
<path style="fill:#839b9b; stroke:none;" d="M507 57L508 58L507 57z"/>
<path style="fill:#115656; stroke:none;" d="M508 57L509.603 77.9722L524 79L524 78L509 78L508 57z"/>
<path style="fill:#020a0a; stroke:none;" d="M307.667 58.3333L308.333 58.6667L307.667 58.3333M358 58L357 60L359 60L358 58z"/>
<path style="fill:#115656; stroke:none;" d="M503 58L504 59L503 58z"/>
<path style="fill:#839b9b; stroke:none;" d="M504 58L505 59L504 58z"/>
<path style="fill:#fefefe; stroke:none;" d="M488 63L488 79L476 79L476 94L488 94C488 107.606 483.493 131.341 491.653 142.995C496.195 149.483 516.825 156.736 522.972 148.436C525.393 145.168 524 137.887 524 134C502.149 141.949 508 106.499 508 94L524 94L524 79L508 79L508 58L488 63z"/>
<path style="fill:#839b9b; stroke:none;" d="M500 59L501 60L500 59z"/>
<path style="fill:#b0b9b9; stroke:none;" d="M501 59L502 60L501 59z"/>
<path style="fill:#020a0a; stroke:none;" d="M256 60L257 61L256 60M438.667 60.3333L439.333 60.6667L438.667 60.3333z"/>
<path style="fill:#839b9b; stroke:none;" d="M440 60L441 61L440 60z"/>
<path style="fill:#115656; stroke:none;" d="M496 60L497 61L496 60z"/>
<path style="fill:#839b9b; stroke:none;" d="M497 60L498 61L497 60z"/>
<path style="fill:#115656; stroke:none;" d="M62 61L63 62L62 61M80.3333 61.6667L80.6667 62.3333L80.3333 61.6667z"/>
<path style="fill:#b0b9b9; stroke:none;" d="M81 61C81.3727 72.3486 101.532 68 110 68L110 67L82 67L81 61M440 61L441 62L440 61z"/>
<path style="fill:#839b9b; stroke:none;" d="M461.333 61.6667L461.667 62.3333L461.333 61.6667z"/>
<path style="fill:#115656; stroke:none;" d="M492 61L493 62L492 61z"/>
<path style="fill:#839b9b; stroke:none;" d="M493 61L494 62L493 61z"/>
<path style="fill:#b0b9b9; stroke:none;" d="M494 61L495 62L494 61z"/>
<path style="fill:#020a0a; stroke:none;" d="M356 64L360 63L356 64M438 62L440 65L440 62L438 62z"/>
<path style="fill:#839b9b; stroke:none;" d="M440 62L440 68L441 68L440 62z"/>
<path style="fill:#115656; stroke:none;" d="M489 62L490 63L489 62z"/>
<path style="fill:#839b9b; stroke:none;" d="M490 62L491 63L490 62z"/>
<path style="fill:#115656; stroke:none;" d="M79.3333 63.6667L79.6667 64.3333L79.3333 63.6667z"/>
<path style="fill:#020a0a; stroke:none;" d="M166 63L167 64L166 63M338 63L338 64L341 64L337 66L337 69L349 70L348 65L343 65L344 63L338 63z"/>
<path style="fill:#b0b9b9; stroke:none;" d="M461 63L462 64L461 63z"/>
<path style="fill:#115656; stroke:none;" d="M487 63L488 64L487 63M61 64L61 86L62 86L61 64z"/>
<path style="fill:#020a0a; stroke:none;" d="M175 64L176 65L175 64z"/>
<path style="fill:#115656; stroke:none;" d="M308 64L310 66L310 64L308 64z"/>
<path style="fill:#020a0a; stroke:none;" d="M381.333 64.6667L381.667 65.3333L381.333 64.6667M425 64L426 65L425 64z"/>
<path style="fill:#839b9b; stroke:none;" d="M461 64L461 73L462 73L461 64M487.333 64.6667L487.667 65.3333L487.333 64.6667z"/>
<path style="fill:#020a0a; stroke:none;" d="M427 65L428 66L427 65z"/>
<path style="fill:#839b9b; stroke:none;" d="M49 66L50 67L49 66z"/>
<path style="fill:#b0b9b9; stroke:none;" d="M49 86L50 86L50 67L61 67C46.6542 60.9802 49 76.9164 49 86z"/>
<path style="fill:#020a0a; stroke:none;" d="M253 66L254 67L253 66M306 66L307 67L306 66z"/>
<path style="fill:#115656; stroke:none;" d="M345 66L346 67L345 66z"/>
<path style="fill:#020a0a; stroke:none;" d="M357 66L359 68L359 66L357 66M413 66L414 67L413 66z"/>
<path style="fill:#115656; stroke:none;" d="M418 66L419 67L418 66M487 66L487 69L488 69L487 66z"/>
<path style="fill:#fefefe; stroke:none;" d="M50 67L50 86L61 86L61 67L50 67z"/>
<path style="fill:#839b9b; stroke:none;" d="M81 67L82 68L81 67z"/>
<path style="fill:#b0b9b9; stroke:none;" d="M131 67L131 68L159 68L131 67z"/>
<path style="fill:#115656; stroke:none;" d="M309 67L310 68L309 67z"/>
<path style="fill:#020a0a; stroke:none;" d="M392 67L393 68L392 67z"/>
<path style="fill:#115656; stroke:none;" d="M83 71L102.933 74.3179L103 87L99 87L103 90L102 92L105 110L109 109C108.401 99.6962 114.008 74.1934 103 71L103 70L105 70C100.08 67.0527 86.4175 65.7285 83 71z"/>
<path style="fill:#020a0a; stroke:none;" d="M102 68L102 69L105 69L105 70L103 70L103 71L109 74L109 68L102 68z"/>
<path style="fill:#839b9b; stroke:none;" d="M109 68L109 150L110 150L110 93L109 68z"/>
<path style="fill:#020a0a; stroke:none;" d="M145 71L146 73L143 74L144 77C149.981 79.8612 154.037 78.4494 156 72L154 72L155 69L145 71z"/>
<path style="fill:#b0b9b9; stroke:none;" d="M440 68L440 78L441 78L440 68z"/>
<path style="fill:#115656; stroke:none;" d="M106 69L107 70L106 69z"/>
<path style="fill:#020a0a; stroke:none;" d="M216 70L216 71L219 71L214 77C217.731 74.9459 219.406 73.1948 218 69L216 70M394 69L395 70L394 69z"/>
<path style="fill:#839b9b; stroke:none;" d="M487 69L488 70L487 69z"/>
<path style="fill:#115656; stroke:none;" d="M487.333 70.6667L487.667 71.3333L487.333 70.6667z"/>
<path style="fill:#839b9b; stroke:none;" d="M68 72L68 73L82 73L68 72z"/>
<path style="fill:#b0b9b9; stroke:none;" d="M82 72L83 73L82 72z"/>
<path style="fill:#839b9b; stroke:none;" d="M83 72L83 73L87 73L83 72z"/>
<path style="fill:#b0b9b9; stroke:none;" d="M87 72L87 73L103 73L87 72z"/>
<path style="fill:#020a0a; stroke:none;" d="M290 72L291 73L290 72M422 72L423 73L422 72z"/>
<path style="fill:#839b9b; stroke:none;" d="M487 72L487 75L488 75L487 72z"/>
<path style="fill:#fefefe; stroke:none;" d="M68 73L68 86L103 86L103 73L68 73z"/>
<path style="fill:#839b9b; stroke:none;" d="M103 73L103 79L104 79L103 73z"/>
<path style="fill:#b0b9b9; stroke:none;" d="M461 73L461 92L462 92L461 73z"/>
<path style="fill:#115656; stroke:none;" d="M67 74L68 75L67 74M153 74L154 75L153 74z"/>
<path style="fill:#020a0a; stroke:none;" d="M291 74L292 75L291 74z"/>
<path style="fill:#115656; stroke:none;" d="M484 75L485 76L484 75M487.333 75.6667L487.667 76.3333L487.333 75.6667M146 76L147 77L146 76M427 76L428 77L427 76M473.667 76.3333L474.333 76.6667L473.667 76.3333M466 78L462 80L462 87L466 88L467 85L471 83L472 83L475 87L476 87L476 79L487 79L466 78M481.667 76.3333L482.333 76.6667L481.667 76.3333z"/>
<path style="fill:#839b9b; stroke:none;" d="M197 77L197 78L203 78L197 77M236.667 77.3333L237.333 77.6667L236.667 77.3333z"/>
<path style="fill:#b0b9b9; stroke:none;" d="M238 77L238 78L241 78L238 77z"/>
<path style="fill:#fefefe; stroke:none;" d="M218 98C230.978 92.6038 250.703 84.0497 255 104C243.124 105.501 226.104 105.106 217.105 114.105C206.13 125.08 209.998 146.772 226 150.471C238.602 153.384 245.915 147.297 255 140L255 150L274 150C274 132.026 279.899 100.847 267.61 86.0432C258.942 75.6024 242.982 76.4218 231 78.8079C227.488 79.5072 221.247 80.3496 219.028 83.51C216.64 86.9102 218 94.0164 218 98z"/>
<path style="fill:#b0b9b9; stroke:none;" d="M248 77L248 78L251 78L248 77z"/>
<path style="fill:#839b9b; stroke:none;" d="M251.667 77.3333L252.333 77.6667L251.667 77.3333M318.667 77.3333L319.333 77.6667L318.667 77.3333z"/>
<path style="fill:#b0b9b9; stroke:none;" d="M320 77L320 78L323 78L320 77z"/>
<path style="fill:#fefefe; stroke:none;" d="M345 131C335.683 134.873 326.303 138.814 317.015 132.197C302.955 122.179 306.796 97.6309 324 93.5324C331.723 91.6925 337.836 94.9519 345 97C345 92.8154 346.652 84.1717 343.972 80.7276C337.212 72.0411 312.489 78.2838 305 82.7639C292.989 89.9492 287.957 102.497 288.001 116C288.071 137.983 303.846 151.007 325 151C330.202 150.998 340.639 151.587 343.972 146.581C346.448 142.862 345 135.306 345 131z"/>
<path style="fill:#b0b9b9; stroke:none;" d="M331 77L331 78L334 78L331 77z"/>
<path style="fill:#839b9b; stroke:none;" d="M334.667 77.3333L335.333 77.6667L334.667 77.3333z"/>
<path style="fill:#020a0a; stroke:none;" d="M477.667 77.3333L478.333 77.6667L477.667 77.3333z"/>
<path style="fill:#839b9b; stroke:none;" d="M487.333 77.6667L487.667 78.3333L487.333 77.6667z"/>
<path style="fill:#115656; stroke:none;" d="M48 78L44 83L43 83L43 79L42 79L42 86L43 86L44 84L49 87L48 78z"/>
<path style="fill:#839b9b; stroke:none;" d="M160 78L160 79L163 79L160 78M172 78L173 79L172 78M175 78L176 79L175 78z"/>
<path style="fill:#b0b9b9; stroke:none;" d="M193.667 78.3333L194.333 78.6667L193.667 78.3333z"/>
<path style="fill:#fefefe; stroke:none;" d="M180 92L180 79L160 79L160 150L180 150C180 131.254 173.953 88.2752 205 97L205 78C191.307 78.0015 188.523 82.6528 180 92z"/>
<path style="fill:#839b9b; stroke:none;" d="M230.667 78.3333L231.333 78.6667L230.667 78.3333z"/>
<path style="fill:#b0b9b9; stroke:none;" d="M232 78L233 79L232 78M255 78L256 79L255 78z"/>
<path style="fill:#839b9b; stroke:none;" d="M256 78L257 79L256 78M314 78L315 79L314 78z"/>
<path style="fill:#b0b9b9; stroke:none;" d="M315 78L316 79L315 78M339 78L340 79L339 78z"/>
<path style="fill:#839b9b; stroke:none;" d="M340 78L341 79L340 78M440 78L440 94L441 94L440 78M508 78L509 79L508 78M35 79C35.067 84.6524 36.1004 86.8063 42 87L42 86L36 86L35 79z"/>
<path style="fill:#b0b9b9; stroke:none;" d="M36 79L36 80L42 80L36 79M180 79L182 92L180 79M191 79L192 80L191 79z"/>
<path style="fill:#839b9b; stroke:none;" d="M205 79L205 84L206 84L205 79M226 79L227 80L226 79z"/>
<path style="fill:#b0b9b9; stroke:none;" d="M227 79L228 80L227 79M258 79L259 80L258 79z"/>
<path style="fill:#839b9b; stroke:none;" d="M311 79L312 80L311 79z"/>
<path style="fill:#b0b9b9; stroke:none;" d="M312 79L313 80L312 79z"/>
<path style="fill:#839b9b; stroke:none;" d="M343 79L344 80L343 79z"/>
<path style="fill:#020a0a; stroke:none;" d="M399.667 79.3333L400.333 79.6667L399.667 79.3333z"/>
<path style="fill:#839b9b; stroke:none;" d="M402 79L403 80L402 79M427 79L428 80L427 79z"/>
<path style="fill:#020a0a; stroke:none;" d="M472 79L473 80L472 79z"/>
<path style="fill:#839b9b; stroke:none;" d="M524 79L524 94L525 94L524 79z"/>
<path style="fill:#fefefe; stroke:none;" d="M36 80L36 86L42 86L42 80L36 80z"/>
<path style="fill:#020a0a; stroke:none;" d="M150 80L147 81L147 82L151 81L150 80z"/>
<path style="fill:#b0b9b9; stroke:none;" d="M189 80L190 81L189 80z"/>
<path style="fill:#839b9b; stroke:none;" d="M223 80L224 81L223 80z"/>
<path style="fill:#b0b9b9; stroke:none;" d="M224 80L225 81L224 80M260 80L261 81L260 80z"/>
<path style="fill:#839b9b; stroke:none;" d="M308 80L309 81L308 80z"/>
<path style="fill:#b0b9b9; stroke:none;" d="M309 80L310 81L309 80M426 80L427 81L426 80z"/>
<path style="fill:#839b9b; stroke:none;" d="M220 81L221 82L220 81z"/>
<path style="fill:#b0b9b9; stroke:none;" d="M221 81L222 82L221 81M262 81L263 82L262 81z"/>
<path style="fill:#839b9b; stroke:none;" d="M306 81L307 82L306 81z"/>
<path style="fill:#b0b9b9; stroke:none;" d="M401 81L402 82L401 81M425 81L426 82L425 81z"/>
<path style="fill:#020a0a; stroke:none;" d="M465 81L466 82L465 81z"/>
<path style="fill:#839b9b; stroke:none;" d="M218 82L219 83L218 82M264 82L265 83L264 82z"/>
<path style="fill:#b0b9b9; stroke:none;" d="M305 82L306 83L305 82z"/>
<path style="fill:#839b9b; stroke:none;" d="M345 82L345 85L346 85L345 82M400 82L401 83L400 82M217 83L219 99L217 83M265 83L266 84L265 83M303 83L304 84L303 83z"/>
<path style="fill:#020a0a; stroke:none;" d="M396 83L397 84L396 83z"/>
<path style="fill:#839b9b; stroke:none;" d="M424 83L425 84L424 83M266 84L267 85L266 84z"/>
<path style="fill:#b0b9b9; stroke:none;" d="M302 84L303 85L302 84z"/>
<path style="fill:#020a0a; stroke:none;" d="M397 84L397 86L399 84L397 84z"/>
<path style="fill:#b0b9b9; stroke:none;" d="M399 84L400 85L399 84z"/>
<path style="fill:#839b9b; stroke:none;" d="M423 84L424 85L423 84z"/>
<path style="fill:#020a0a; stroke:none;" d="M468 84L469 85L468 84z"/>
<path style="fill:#b0b9b9; stroke:none;" d="M184 85L185 86L184 85z"/>
<path style="fill:#839b9b; stroke:none;" d="M267 85L268 86L267 85M300 85L301 86L300 85M398 85L399 86L398 85z"/>
<path style="fill:#b0b9b9; stroke:none;" d="M422 85L423 86L422 85z"/>
<path style="fill:#115656; stroke:none;" d="M472 85L473 86L472 85M35 86L36 87L35 86z"/>
<path style="fill:#b0b9b9; stroke:none;" d="M68 86L68 87L103 87L68 86z"/>
<path style="fill:#839b9b; stroke:none;" d="M183 86L184 87L183 86M268 86L269 87L268 86M299 86L300 87L299 86z"/>
<path style="fill:#020a0a; stroke:none;" d="M356 86L356 90L352 90L352 94C347.927 95.1864 345.061 102.247 349 105L349 106L346 109L348 109L347 112L348 112L351 109L350 113L356 114L356 113L354 112L359 111L357 108C361.189 102.676 362.3 89.8645 356 86z"/>
<path style="fill:#b0b9b9; stroke:none;" d="M421 86L422 87L421 86z"/>
<path style="fill:#115656; stroke:none;" d="M80 87C80.6674 95.5655 92.6781 93.8687 99 92L99 91C96.5257 91.8248 84.6208 93.9656 82 92C79.2159 89.9119 81.9432 89.7358 83 90L80 87z"/>
<path style="fill:#020a0a; stroke:none;" d="M81 87L83 90L81 92L103 91L103 90L81 87z"/>
<path style="fill:#115656; stroke:none;" d="M83.6667 87.3333L84.3333 87.6667L83.6667 87.3333z"/>
<path style="fill:#b0b9b9; stroke:none;" d="M298 87L299 88L298 87z"/>
<path style="fill:#020a0a; stroke:none;" d="M381 87L381 110L382 110C384.806 105.837 389.926 100.364 384 97L381 87M396 87L395 89L396 87z"/>
<path style="fill:#b0b9b9; stroke:none;" d="M397 87L398 88L397 87z"/>
<path style="fill:#839b9b; stroke:none;" d="M182 88L183 89L182 88z"/>
<path style="fill:#b0b9b9; stroke:none;" d="M269 88L270 89L269 88z"/>
<path style="fill:#839b9b; stroke:none;" d="M297 88L298 89L297 88M396 88L397 89L396 88z"/>
<path style="fill:#115656; stroke:none;" d="M420 88L421 89L420 88M462 88L463 89L462 88M464 88L465 89L464 88M70.3333 89.6667L70.6667 90.3333L70.3333 89.6667z"/>
<path style="fill:#839b9b; stroke:none;" d="M270 89L271 90L270 89M296 89L297 90L296 89M345 89L345 95L346 95L345 89M419 89L420 90L419 89z"/>
<path style="fill:#115656; stroke:none;" d="M475.333 89.6667L475.667 90.3333L475.333 89.6667z"/>
<path style="fill:#b0b9b9; stroke:none;" d="M270 90L271 91L270 90z"/>
<path style="fill:#020a0a; stroke:none;" d="M272 90L273 91L272 90z"/>
<path style="fill:#839b9b; stroke:none;" d="M295 90L296 91L295 90z"/>
<path style="fill:#b0b9b9; stroke:none;" d="M395 90L396 91L395 90M418 90L419 91L418 90M236.667 91.3333L237.333 91.6667L236.667 91.3333z"/>
<path style="fill:#839b9b; stroke:none;" d="M238 91L238 92L244 92L238 91z"/>
<path style="fill:#b0b9b9; stroke:none;" d="M244.667 91.3333L245.333 91.6667L244.667 91.3333z"/>
<path style="fill:#839b9b; stroke:none;" d="M394 91L395 92L394 91z"/>
<path style="fill:#b0b9b9; stroke:none;" d="M417 91L418 92L417 91z"/>
<path style="fill:#115656; stroke:none;" d="M58.6667 92.3333L59.3333 92.6667L58.6667 92.3333M68 92L68 93L71 93L68 92M78 92L79 93L78 92z"/>
<path style="fill:#839b9b; stroke:none;" d="M79 92L78 128L79 128C79 118.981 75.4937 100.268 81 93L79 92M98 92L98 93L104 93L98 92z"/>
<path style="fill:#b0b9b9; stroke:none;" d="M231 92L232 93L231 92z"/>
<path style="fill:#839b9b; stroke:none;" d="M232.667 92.3333L233.333 92.6667L232.667 92.3333z"/>
<path style="fill:#115656; stroke:none;" d="M222 96L224 100L221 99L219 103C213.996 101.535 209.758 102.263 209 108L201 112L201 113L208 116L203 119L208 119L208 122L208 123L204 124L204 125L210 128L211 128C210.517 110.913 227.917 109.212 239.996 105.211C245.544 103.373 247.714 98.1715 254 100C250.77 90.3086 238.21 89.93 229 93C225.361 94.213 224.14 96.535 222 96z"/>
<path style="fill:#020a0a; stroke:none;" d="M242 92L243 93L242 92z"/>
<path style="fill:#839b9b; stroke:none;" d="M247 92L248 93L247 92z"/>
<path style="fill:#b0b9b9; stroke:none;" d="M248 92L249 93L248 92M271 92L272 93L271 92M294 92L295 93L294 92z"/>
<path style="fill:#115656; stroke:none;" d="M417 92L418 93L417 92z"/>
<path style="fill:#839b9b; stroke:none;" d="M461 92L461 109L462 109L461 92z"/>
<path style="fill:#115656; stroke:none;" d="M44 93L44 104L45 104L44 93z"/>
<path style="fill:#fefefe; stroke:none;" d="M45 93L45 103L71 103L71 93L45 93z"/>
<path style="fill:#b0b9b9; stroke:none;" d="M71 93L71 103L45 103L45 104C53.7481 104 77.4665 108.41 71 93z"/>
<path style="fill:#fefefe; stroke:none;" d="M79 93L79 127L104 127L104 93L79 93z"/>
<path style="fill:#b0b9b9; stroke:none;" d="M228 93L229 94L228 93z"/>
<path style="fill:#020a0a; stroke:none;" d="M243.333 93.6667L243.667 94.3333L243.333 93.6667z"/>
<path style="fill:#839b9b; stroke:none;" d="M293 93L294 94L293 93z"/>
<path style="fill:#b0b9b9; stroke:none;" d="M323 93L324 94L323 93z"/>
<path style="fill:#839b9b; stroke:none;" d="M324.667 93.3333L325.333 93.6667L324.667 93.3333M333.667 93.3333L334.333 93.6667L333.667 93.3333z"/>
<path style="fill:#b0b9b9; stroke:none;" d="M335 93L336 94L335 93z"/>
<path style="fill:#115656; stroke:none;" d="M353 93L354 94L353 93z"/>
<path style="fill:#b0b9b9; stroke:none;" d="M393 93L394 94L393 93z"/>
<path style="fill:#839b9b; stroke:none;" d="M416 93L417 94L416 93z"/>
<path style="fill:#b0b9b9; stroke:none;" d="M225 94L226 95L225 94z"/>
<path style="fill:#839b9b; stroke:none;" d="M226 94L227 95L226 94z"/>
<path style="fill:#b0b9b9; stroke:none;" d="M251 94L252 95L251 94z"/>
<path style="fill:#839b9b; stroke:none;" d="M272 94L273 95L272 94z"/>
<path style="fill:#b0b9b9; stroke:none;" d="M320 94L321 95L320 94z"/>
<path style="fill:#839b9b; stroke:none;" d="M321 94L322 95L321 94z"/>
<path style="fill:#b0b9b9; stroke:none;" d="M338 94L339 95L338 94z"/>
<path style="fill:#839b9b; stroke:none;" d="M392 94L393 95L392 94M415 94L416 95L415 94z"/>
<path style="fill:#b0b9b9; stroke:none;" d="M440 94L440 114L441 114L440 94z"/>
<path style="fill:#115656; stroke:none;" d="M476 94L476 95L479 98L480 95L486 97L487 94L476 94z"/>
<path style="fill:#839b9b; stroke:none;" d="M487 94L487 128L488 128L487 94M508 94L509 95L508 94z"/>
<path style="fill:#115656; stroke:none;" d="M508 127L509 127L510 95L524 95C502.519 85.9861 508 114.362 508 127z"/>
<path style="fill:#b0b9b9; stroke:none;" d="M193.667 95.3333L194.333 95.6667L193.667 95.3333z"/>
<path style="fill:#839b9b; stroke:none;" d="M195 95L195 96L199 96L195 95z"/>
<path style="fill:#b0b9b9; stroke:none;" d="M199 95L200 96L199 95M223 95L224 96L223 95M272 95L273 96L272 95M292 95L293 96L292 95M318 95L319 96L318 95z"/>
<path style="fill:#839b9b; stroke:none;" d="M340 95L341 96L340 95z"/>
<path style="fill:#b0b9b9; stroke:none;" d="M414 95L415 96L414 95z"/>
<path style="fill:#115656; stroke:none;" d="M411 103L411 104L402 111L402 112L403 115L406 116C406.877 120.345 411.091 120.26 415 121L415 120L413 117L416 119L419 116L419 113L437 113L436 115L440 115L440 95C435.297 95.3558 432.277 96.9434 433 102C429.481 101.998 425.345 102.439 422.143 100.686C420.19 99.6161 418.963 96.4303 416.741 96.0594C413.588 95.5332 409.605 100.511 411 103z"/>
<path style="fill:#839b9b; stroke:none;" d="M190 96L191 97L190 96z"/>
<path style="fill:#115656; stroke:none;" d="M182 108L184 107L183 110L190 107L196 102L195 99L199 96C190.04 96.0257 184.32 98.824 182 108z"/>
<path style="fill:#839b9b; stroke:none;" d="M202 96L203 97L202 96z"/>
<path style="fill:#b0b9b9; stroke:none;" d="M203 96L204 97L203 96M221 96L222 97L221 96z"/>
<path style="fill:#020a0a; stroke:none;" d="M223 96L224 97L223 96z"/>
<path style="fill:#839b9b; stroke:none;" d="M342 96L343 97L342 96z"/>
<path style="fill:#115656; stroke:none;" d="M481 96L481 100L482 100L481 96z"/>
<path style="fill:#b0b9b9; stroke:none;" d="M130 97L130 100L131 100L130 97z"/>
<path style="fill:#020a0a; stroke:none;" d="M131.333 97.6667L131.667 98.3333L131.333 97.6667z"/>
<path style="fill:#839b9b; stroke:none;" d="M188 97L189 98L188 97z"/>
<path style="fill:#b0b9b9; stroke:none;" d="M219 97L220 98L219 97z"/>
<path style="fill:#115656; stroke:none;" d="M220 97L221 98L220 97z"/>
<path style="fill:#020a0a; stroke:none;" d="M242 97L240 102L241 102L242 102L242 97z"/>
<path style="fill:#b0b9b9; stroke:none;" d="M253 97L254 98L253 97M291 97L292 98L291 97M315 97L316 98L315 97M344 97L345 98L344 97z"/>
<path style="fill:#839b9b; stroke:none;" d="M390 97L391 98L390 97z"/>
<path style="fill:#020a0a; stroke:none;" d="M241 104L241 105L254 104C252.492 94.5519 245.96 101.694 241 104z"/>
<path style="fill:#839b9b; stroke:none;" d="M253 98L254 99L253 98M273.333 98.6667L273.667 99.3333L273.333 98.6667z"/>
<path style="fill:#b0b9b9; stroke:none;" d="M314 98L315 99L314 98z"/>
<path style="fill:#839b9b; stroke:none;" d="M412 98L413 99L412 98z"/>
<path style="fill:#115656; stroke:none;" d="M477 98L478 99L477 98M484 98L485 99L484 98M486 98L487 99L486 98z"/>
<path style="fill:#839b9b; stroke:none;" d="M290 99L291 100L290 99z"/>
<path style="fill:#b0b9b9; stroke:none;" d="M313 99L314 100L313 99M411 99L412 100L411 99z"/>
<path style="fill:#020a0a; stroke:none;" d="M193 100L194 101L193 100z"/>
<path style="fill:#b0b9b9; stroke:none;" d="M273.333 100.667L273.667 101.333L273.333 100.667M312 100L313 101L312 100z"/>
<path style="fill:#839b9b; stroke:none;" d="M388 100L389 101L388 100z"/>
<path style="fill:#b0b9b9; stroke:none;" d="M410 100L411 101L410 100z"/>
<path style="fill:#115656; stroke:none;" d="M483 100L483 102L485 102L485 100L483 100z"/>
<path style="fill:#b0b9b9; stroke:none;" d="M130 101L130 104L131 104L130 101z"/>
<path style="fill:#020a0a; stroke:none;" d="M131 101L131 103L133 101L131 101z"/>
<path style="fill:#839b9b; stroke:none;" d="M184 101L185 102L184 101z"/>
<path style="fill:#020a0a; stroke:none;" d="M221 101L220 104L218 103L217 103C219.118 105.337 221.713 104.152 221 101z"/>
<path style="fill:#b0b9b9; stroke:none;" d="M254 101L254 104L255 104L254 101z"/>
<path style="fill:#020a0a; stroke:none;" d="M345 130L346 134L350 134L350 135L346 135L346 137L355 137L355 138L345 138L345 139L360 138L360 125L345 128L347 125L342 127L342 126L349 124L349 123L342 124L338 120L330 121L332 119L332 118L312 111L316 106L316 105L313 105L316 102C307.948 100.314 308.574 116.213 309.681 121C313.183 136.153 333.938 137.784 345 130M328 101L326 105L338 107L338 106L332 105L332 104L335 102L332 103L328 101z"/>
<path style="fill:#115656; stroke:none;" d="M387 101L388 102L387 101z"/>
<path style="fill:#020a0a; stroke:none;" d="M411.333 101.667L411.667 102.333L411.333 101.667z"/>
<path style="fill:#115656; stroke:none;" d="M471 102L469 107C465.978 106.929 466.848 108.697 468 111L465 112L468 113L468 114L464 116L464 117L468 117L465 123L470 123L469 127L470 127L471 123L472 123L475 126L475 130L472 129L477 134L482 132L482 130L484 131C486.159 124.97 489.063 117.8 485 112L487 109L483 108L484 110L482 103L481 103L480 108L479 108L478 103L481 102L471 102z"/>
<path style="fill:#b0b9b9; stroke:none;" d="M183 102L184 103L183 102M289 102L290 103L289 102z"/>
<path style="fill:#839b9b; stroke:none;" d="M311 102L312 103L311 102z"/>
<path style="fill:#115656; stroke:none;" d="M329 102L330 103L329 102z"/>
<path style="fill:#020a0a; stroke:none;" d="M477 102L478 103L477 102z"/>
<path style="fill:#839b9b; stroke:none;" d="M71 103L72 104L71 103z"/>
<path style="fill:#020a0a; stroke:none;" d="M212.667 103.333L213.333 103.667L212.667 103.333M235 103L235 104L239 104L239 103L235 103z"/>
<path style="fill:#839b9b; stroke:none;" d="M386 103L387 104L386 103M408 103L409 104L408 103z"/>
<path style="fill:#020a0a; stroke:none;" d="M409.667 103.333L410.333 103.667L409.667 103.333M426 103L426 104L429 104L426 103M472 103L472 104L472 105L475 104L475 103L472 103z"/>
<path style="fill:#115656; stroke:none;" d="M60 104L60 107L61 107L60 104z"/>
<path style="fill:#b0b9b9; stroke:none;" d="M182 104L183 105L182 104z"/>
<path style="fill:#115656; stroke:none;" d="M247.667 104.333L248.333 104.667L247.667 104.333z"/>
<path style="fill:#839b9b; stroke:none;" d="M249.667 104.333L250.333 104.667L249.667 104.333z"/>
<path style="fill:#b0b9b9; stroke:none;" d="M251 104L252 105L251 104z"/>
<path style="fill:#839b9b; stroke:none;" d="M310 104L311 105L310 104z"/>
<path style="fill:#115656; stroke:none;" d="M385 104L386 105L385 104z"/>
<path style="fill:#b0b9b9; stroke:none;" d="M407 104L408 105L407 104z"/>
<path style="fill:#115656; stroke:none;" d="M467 104L468 105L467 104z"/>
<path style="fill:#020a0a; stroke:none;" d="M477 104L478 105L477 104M131 105L132 106L131 105z"/>
<path style="fill:#839b9b; stroke:none;" d="M182 105L183 106L182 105z"/>
<path style="fill:#020a0a; stroke:none;" d="M189 105L190 106L189 105z"/>
<path style="fill:#115656; stroke:none;" d="M205 105L203 108L205 105M207 105L208 106L207 105z"/>
<path style="fill:#020a0a; stroke:none;" d="M234.667 105.333L235.333 105.667L234.667 105.333z"/>
<path style="fill:#839b9b; stroke:none;" d="M240.667 105.333L241.333 105.667L240.667 105.333z"/>
<path style="fill:#b0b9b9; stroke:none;" d="M242.667 105.333L243.333 105.667L242.667 105.333z"/>
<path style="fill:#839b9b; stroke:none;" d="M288.333 105.667L288.667 106.333L288.333 105.667z"/>
<path style="fill:#115656; stroke:none;" d="M310 105L311 106L310 105z"/>
<path style="fill:#020a0a; stroke:none;" d="M219 106L218 108L220 108L219 106z"/>
<path style="fill:#839b9b; stroke:none;" d="M233.667 106.333L234.333 106.667L233.667 106.333z"/>
<path style="fill:#b0b9b9; stroke:none;" d="M235.667 106.333L236.333 106.667L235.667 106.333M309 106L310 107L309 106z"/>
<path style="fill:#115656; stroke:none;" d="M333 106L333 107L336 107L336 106L333 106M381 106L382 107L381 106z"/>
<path style="fill:#839b9b; stroke:none;" d="M384 106L385 107L384 106z"/>
<path style="fill:#115656; stroke:none;" d="M484 106L485 107L484 106M57.3333 107.667L57.6667 108.333L57.3333 107.667z"/>
<path style="fill:#020a0a; stroke:none;" d="M108 107L109 108L108 107z"/>
<path style="fill:#b0b9b9; stroke:none;" d="M181 107L182 108L181 107z"/>
<path style="fill:#115656; stroke:none;" d="M188 107L189 108L188 107z"/>
<path style="fill:#839b9b; stroke:none;" d="M228 107L229 108L228 107z"/>
<path style="fill:#b0b9b9; stroke:none;" d="M229.667 107.333L230.333 107.667L229.667 107.333M288 107L289 108L288 107z"/>
<path style="fill:#839b9b; stroke:none;" d="M309 107L310 108L309 107z"/>
<path style="fill:#020a0a; stroke:none;" d="M327 107L328 108L327 107z"/>
<path style="fill:#115656; stroke:none;" d="M383 107L384 108L383 107z"/>
<path style="fill:#839b9b; stroke:none;" d="M405 107L406 108L405 107z"/>
<path style="fill:#115656; stroke:none;" d="M486 107L487 108L486 107M61 108L62 109L61 108z"/>
<path style="fill:#839b9b; stroke:none;" d="M181 108L182 109L181 108z"/>
<path style="fill:#115656; stroke:none;" d="M187 108L188 109L187 108z"/>
<path style="fill:#839b9b; stroke:none;" d="M225 108L226 109L225 108z"/>
<path style="fill:#b0b9b9; stroke:none;" d="M226 108L227 109L226 108z"/>
<path style="fill:#115656; stroke:none;" d="M309 108L310 109L309 108z"/>
<path style="fill:#b0b9b9; stroke:none;" d="M404 108L405 109L404 108z"/>
<path style="fill:#115656; stroke:none;" d="M55 109L55 113L56 113L55 109z"/>
<path style="fill:#020a0a; stroke:none;" d="M104 109L104 117L107 119L109 109L104 109z"/>
<path style="fill:#b0b9b9; stroke:none;" d="M130 109L130 112L131 112L130 109z"/>
<path style="fill:#020a0a; stroke:none;" d="M131 109L131 112L132 112L131 109z"/>
<path style="fill:#115656; stroke:none;" d="M181.333 109.667L181.667 110.333L181.333 109.667z"/>
<path style="fill:#020a0a; stroke:none;" d="M203 113L206 110L210 110C206.708 108.962 205.101 110.473 203 113z"/>
<path style="fill:#839b9b; stroke:none;" d="M223 109L224 110L223 109M382 109L383 110L382 109z"/>
<path style="fill:#b0b9b9; stroke:none;" d="M403 109L404 110L403 109M461 109L461 135L462 135L461 109z"/>
<path style="fill:#115656; stroke:none;" d="M42 110L42 111L47 111L42 110M57 110L58 111L57 110z"/>
<path style="fill:#839b9b; stroke:none;" d="M57 125L58 125L58 111L72 111C58.8046 105.463 57 114.454 57 125z"/>
<path style="fill:#b0b9b9; stroke:none;" d="M221 110L222 111L221 110z"/>
<path style="fill:#115656; stroke:none;" d="M381 110L382 111L381 110z"/>
<path style="fill:#020a0a; stroke:none;" d="M486 110L487 111L486 110z"/>
<path style="fill:#839b9b; stroke:none;" d="M34 111L34 118L35 118L34 111z"/>
<path style="fill:#fefefe; stroke:none;" d="M35 111L35 118L52 118L52 111L35 111z"/>
<path style="fill:#115656; stroke:none;" d="M52 111L52 118L53 118L52 111z"/>
<path style="fill:#fefefe; stroke:none;" d="M58 111L58 125L72 125L72 111L58 111z"/>
<path style="fill:#115656; stroke:none;" d="M104 111L105 112L104 111z"/>
<path style="fill:#020a0a; stroke:none;" d="M154 111L155 112L154 111z"/>
<path style="fill:#b0b9b9; stroke:none;" d="M308 111L308 118L309 118L308 111z"/>
<path style="fill:#020a0a; stroke:none;" d="M482.333 111.667L482.667 112.333L482.333 111.667z"/>
<path style="fill:#b0b9b9; stroke:none;" d="M218 112L219 113L218 112z"/>
<path style="fill:#020a0a; stroke:none;" d="M358 112L359 113L358 112z"/>
<path style="fill:#b0b9b9; stroke:none;" d="M401 112L402 113L401 112z"/>
<path style="fill:#020a0a; stroke:none;" d="M402 112L404 114L402 112M485.667 112.333L486.333 112.667L485.667 112.333z"/>
<path style="fill:#115656; stroke:none;" d="M56 113L56 117L57 117L56 113z"/>
<path style="fill:#b0b9b9; stroke:none;" d="M130 113L130 135L131 135L130 113z"/>
<path style="fill:#020a0a; stroke:none;" d="M131 113L131 134L142 133L149 126L140 125L140 124L146 122L146 121L139 121L140 118L136 119L136 116L133 117L133 113L131 113M153.667 113.333L154.333 113.667L153.667 113.333M208.667 113.333L209.333 113.667L208.667 113.333z"/>
<path style="fill:#b0b9b9; stroke:none;" d="M217 113L218 114L217 113z"/>
<path style="fill:#115656; stroke:none;" d="M280.333 113.667L280.667 114.333L280.333 113.667z"/>
<path style="fill:#839b9b; stroke:none;" d="M402 113L403 114L402 113z"/>
<path style="fill:#020a0a; stroke:none;" d="M419 113L419 116L416 119L413 117L415 120L415 121L408 120L416 128C416.499 141.824 429.78 142 440 142L440 115L436 115L437 113L419 113z"/>
<path style="fill:#115656; stroke:none;" d="M104.333 114.667L104.667 115.333L104.333 114.667z"/>
<path style="fill:#b0b9b9; stroke:none;" d="M180 114L180 150L181 150C181 139.613 184.011 123.56 180 114M216 114L217 115L216 114z"/>
<path style="fill:#115656; stroke:none;" d="M317.667 114.333L318.333 114.667L317.667 114.333z"/>
<path style="fill:#020a0a; stroke:none;" d="M323 114L323 115L326 115L323 114z"/>
<path style="fill:#839b9b; stroke:none;" d="M440 114L440 134L441 134L440 114z"/>
<path style="fill:#020a0a; stroke:none;" d="M468 114L469 115L468 114z"/>
<path style="fill:#115656; stroke:none;" d="M74 115L75 116L74 115z"/>
<path style="fill:#020a0a; stroke:none;" d="M136 115L137 116L136 115z"/>
<path style="fill:#b0b9b9; stroke:none;" d="M215 115L216 116L215 115z"/>
<path style="fill:#839b9b; stroke:none;" d="M287.333 115.667L287.667 116.333L287.333 115.667z"/>
<path style="fill:#020a0a; stroke:none;" d="M356.667 115.333L357.333 115.667L356.667 115.333z"/>
<path style="fill:#b0b9b9; stroke:none;" d="M380 115L380 149L381 149L380 115z"/>
<path style="fill:#839b9b; stroke:none;" d="M381 115L382 116L381 115z"/>
<path style="fill:#b0b9b9; stroke:none;" d="M403 115L404 116L403 115z"/>
<path style="fill:#020a0a; stroke:none;" d="M404 115L406 117L404 115M407 115L408 116L407 115M415 115L416 116L415 115z"/>
<path style="fill:#115656; stroke:none;" d="M76 116L77 117L76 116M131 116L132 117L131 116z"/>
<path style="fill:#839b9b; stroke:none;" d="M214 116L215 117L214 116z"/>
<path style="fill:#b0b9b9; stroke:none;" d="M248 116L249 117L248 116z"/>
<path style="fill:#839b9b; stroke:none;" d="M249.667 116.333L250.333 116.667L249.667 116.333z"/>
<path style="fill:#115656; stroke:none;" d="M251.667 116.333L252.333 116.667L251.667 116.333z"/>
<path style="fill:#020a0a; stroke:none;" d="M253 116L241 121L250 121L250 122L243 122L242 122L237 124L237 125L244 125L244 126L238 126L238 127L240 127L240 128L234 127L231 133C241.967 133 260.136 133.006 253 116z"/>
<path style="fill:#839b9b; stroke:none;" d="M254 116L254 122L255 122L254 116z"/>
<path style="fill:#020a0a; stroke:none;" d="M354 116L355 117L354 116z"/>
<path style="fill:#115656; stroke:none;" d="M381 116L381 135L395 136L388 128C387.671 124.107 385.782 121.251 382 120L381 116z"/>
<path style="fill:#839b9b; stroke:none;" d="M404 116L405 117L404 116z"/>
<path style="fill:#020a0a; stroke:none;" d="M410 116L406 117L406 118C408.284 118.493 411.169 119.083 410 116z"/>
<path style="fill:#115656; stroke:none;" d="M77 117L78 118L77 117M104 117L104 121L109 120L109 119L108 117L104 117z"/>
<path style="fill:#020a0a; stroke:none;" d="M141.667 117.333L142.333 117.667L141.667 117.333z"/>
<path style="fill:#b0b9b9; stroke:none;" d="M240.667 117.333L241.333 117.667L240.667 117.333z"/>
<path style="fill:#839b9b; stroke:none;" d="M242.667 117.333L243.333 117.667L242.667 117.333z"/>
<path style="fill:#115656; stroke:none;" d="M244.667 117.333L245.333 117.667L244.667 117.333M287 117L287 122L288 122L287 117M56 118L57 119L56 118M73 118L74 119L73 118z"/>
<path style="fill:#b0b9b9; stroke:none;" d="M213 118L214 119L213 118M236 118L237 119L236 118z"/>
<path style="fill:#839b9b; stroke:none;" d="M237 118L238 119L237 118z"/>
<path style="fill:#115656; stroke:none;" d="M230 131L234 127L240 128L240 127L238 127L238 126L244 126L244 125L237 125L237 124L242 122L243 122L250 122L250 121L241 121L243 119C234.67 115.758 230.166 123.924 230 131M285 118L286 119L285 118z"/>
<path style="fill:#020a0a; stroke:none;" d="M336 118L338 120L338 118L336 118z"/>
<path style="fill:#839b9b; stroke:none;" d="M383 118L384 119L383 118z"/>
<path style="fill:#115656; stroke:none;" d="M418 118L419 119L418 118M74 119L75 120L74 119M76 119L77 120L76 119z"/>
<path style="fill:#020a0a; stroke:none;" d="M105 119L106 120L105 119z"/>
<path style="fill:#839b9b; stroke:none;" d="M212 119L213 120L212 119z"/>
<path style="fill:#b0b9b9; stroke:none;" d="M234 119L235 120L234 119z"/>
<path style="fill:#020a0a; stroke:none;" d="M333 119L334 120L333 119M345 119L346 120L345 119M382.667 119.333L383.333 119.667L382.667 119.333z"/>
<path style="fill:#b0b9b9; stroke:none;" d="M406 119L407 120L406 119z"/>
<path style="fill:#115656; stroke:none;" d="M75 120L76 121L75 120M77 120L78 121L77 120z"/>
<path style="fill:#020a0a; stroke:none;" d="M104 121L104 122L109 120L104 121z"/>
<path style="fill:#115656; stroke:none;" d="M132.667 120.333L133.333 120.667L132.667 120.333M136.667 120.333L137.333 120.667L136.667 120.333z"/>
<path style="fill:#020a0a; stroke:none;" d="M208.667 120.333L209.333 120.667L208.667 120.333z"/>
<path style="fill:#b0b9b9; stroke:none;" d="M212 120L213 121L212 120z"/>
<path style="fill:#839b9b; stroke:none;" d="M233 120L234 121L233 120z"/>
<path style="fill:#020a0a; stroke:none;" d="M234 121L237 123L237 120L234 121z"/>
<path style="fill:#115656; stroke:none;" d="M309 120L310 121L309 120z"/>
<path style="fill:#020a0a; stroke:none;" d="M342 120L345 122L342 120M356 122L359 122L358 120L356 122z"/>
<path style="fill:#b0b9b9; stroke:none;" d="M407 120L408 121L407 120z"/>
<path style="fill:#020a0a; stroke:none;" d="M239 121L240 122L239 121z"/>
<path style="fill:#839b9b; stroke:none;" d="M309 121L310 122L309 121M385 121L386 122L385 121M408 121L409 122L408 121z"/>
<path style="fill:#115656; stroke:none;" d="M104 122L109 126L109 122L104 122z"/>
<path style="fill:#839b9b; stroke:none;" d="M211 122L212 123L211 122M231 122L232 123L231 122z"/>
<path style="fill:#b0b9b9; stroke:none;" d="M254.333 122.667L254.667 123.333L254.333 122.667z"/>
<path style="fill:#115656; stroke:none;" d="M283 122L288 127L289 127L283 122z"/>
<path style="fill:#b0b9b9; stroke:none;" d="M309 122L310 123L309 122z"/>
<path style="fill:#115656; stroke:none;" d="M339 122L339 124L341 124L339 122z"/>
<path style="fill:#020a0a; stroke:none;" d="M385 122L386 123L385 122z"/>
<path style="fill:#115656; stroke:none;" d="M409 122L410 123L409 122z"/>
<path style="fill:#020a0a; stroke:none;" d="M486 122L487 123L486 122z"/>
<path style="fill:#115656; stroke:none;" d="M72 123C75.3614 127.353 79.5712 130.02 85 131L85 132L83 132L83 133C90.0978 132.634 104.663 135.715 109 129L87 130L88 128L87 128L77 127L78 125L77 124L72 123z"/>
<path style="fill:#020a0a; stroke:none;" d="M108 123L109 124L108 123z"/>
<path style="fill:#b0b9b9; stroke:none;" d="M211 123L212 124L211 123M230 123L231 124L230 123M288 123L289 124L288 123z"/>
<path style="fill:#020a0a; stroke:none;" d="M382 123L383 124L382 123z"/>
<path style="fill:#115656; stroke:none;" d="M463 123L464 124L463 123z"/>
<path style="fill:#020a0a; stroke:none;" d="M479 123L480 124L479 123M481 123L483 125L481 123M485 123L484 125L485 123z"/>
<path style="fill:#115656; stroke:none;" d="M52 124L53 125L52 124z"/>
<path style="fill:#020a0a; stroke:none;" d="M72 124L75 129L73 132L85 132L85 131L72 124M210 124L211 125L210 124z"/>
<path style="fill:#839b9b; stroke:none;" d="M230 124L231 125L230 124M288 124L289 125L288 124M310 124L311 125L310 124M387 124L388 125L387 124z"/>
<path style="fill:#b0b9b9; stroke:none;" d="M410 124L411 125L410 124z"/>
<path style="fill:#020a0a; stroke:none;" d="M477 124L479 126L477 124z"/>
<path style="fill:#115656; stroke:none;" d="M53 125C54.5933 129.683 57.1883 132.646 62 134L61 142L62 142L62 137L66 139L58 125L53 125z"/>
<path style="fill:#b0b9b9; stroke:none;" d="M58 125L58 126L72 126L58 125z"/>
<path style="fill:#020a0a; stroke:none;" d="M75.6667 125.333L76.3333 125.667L75.6667 125.333M104 125L103 129L109 129L104 125z"/>
<path style="fill:#115656; stroke:none;" d="M185.667 125.333L186.333 125.667L185.667 125.333z"/>
<path style="fill:#020a0a; stroke:none;" d="M231 125L232 126L231 125z"/>
<path style="fill:#115656; stroke:none;" d="M337 125L338 126L337 125z"/>
<path style="fill:#b0b9b9; stroke:none;" d="M388 125L389 126L388 125z"/>
<path style="fill:#839b9b; stroke:none;" d="M411 125L412 126L411 125z"/>
<path style="fill:#020a0a; stroke:none;" d="M475 125L475 128L478 131L483 129L483 128L477 128L475 125M57 126L66 136L71 133C66.7254 128.399 63.2565 126.268 57 126z"/>
<path style="fill:#115656; stroke:none;" d="M61 126L62 127L61 126M64 126C66.9661 130.109 69.8971 132.432 75 133L75 132L75 129L64 126z"/>
<path style="fill:#020a0a; stroke:none;" d="M77 126L78 127L77 126z"/>
<path style="fill:#839b9b; stroke:none;" d="M253 126L254 127L253 126M311 126L312 127L311 126z"/>
<path style="fill:#020a0a; stroke:none;" d="M348 126L347 128L348 126M387 126L388 127L387 126z"/>
<path style="fill:#115656; stroke:none;" d="M412 126L413 127L412 126M416 126L416 127L420 127L416 126z"/>
<path style="fill:#020a0a; stroke:none;" d="M481 126L482 127L481 126z"/>
<path style="fill:#115656; stroke:none;" d="M62 127L66 131L62 127z"/>
<path style="fill:#b0b9b9; stroke:none;" d="M79 127L79 128L104 128L79 127z"/>
<path style="fill:#020a0a; stroke:none;" d="M150 127L149 129L150 127M155 128L155 129L160 127L155 128z"/>
<path style="fill:#115656; stroke:none;" d="M189 127L190 128L189 127M196.667 127.333L197.333 127.667L196.667 127.333z"/>
<path style="fill:#b0b9b9; stroke:none;" d="M229.333 127.667L229.667 128.333L229.333 127.667z"/>
<path style="fill:#020a0a; stroke:none;" d="M232 127L233 128L232 127z"/>
<path style="fill:#b0b9b9; stroke:none;" d="M253 127L254 128L253 127z"/>
<path style="fill:#115656; stroke:none;" d="M317.667 127.333L318.333 127.667L317.667 127.333z"/>
<path style="fill:#020a0a; stroke:none;" d="M388 127L389 128L388 127z"/>
<path style="fill:#839b9b; stroke:none;" d="M389 127L390 128L389 127z"/>
<path style="fill:#115656; stroke:none;" d="M468.333 127.667L468.667 128.333L468.333 127.667z"/>
<path style="fill:#839b9b; stroke:none;" d="M508 127L509 128L508 127z"/>
<path style="fill:#115656; stroke:none;" d="M75 128L76 129L75 128z"/>
<path style="fill:#020a0a; stroke:none;" d="M80.6667 128.333L81.3333 128.667L80.6667 128.333M85 128L86 129L85 128M87 129L87 130L91 129L87 129M92 128L93 129L92 128z"/>
<path style="fill:#115656; stroke:none;" d="M181.667 128.333L182.333 128.667L181.667 128.333M208 128L207 129L207 130L208 131L209 131L210 130L210 129L208 128z"/>
<path style="fill:#839b9b; stroke:none;" d="M210 128L210 132L211 132L210 128z"/>
<path style="fill:#115656; stroke:none;" d="M252 128L253 129L252 128z"/>
<path style="fill:#839b9b; stroke:none;" d="M289 128L290 129L289 128z"/>
<path style="fill:#b0b9b9; stroke:none;" d="M312 128L313 129L312 128z"/>
<path style="fill:#115656; stroke:none;" d="M359 128L359 131L360 131L359 128z"/>
<path style="fill:#020a0a; stroke:none;" d="M385 128L386 129L385 128z"/>
<path style="fill:#b0b9b9; stroke:none;" d="M390 128L391 129L390 128M413 128L414 129L413 128z"/>
<path style="fill:#115656; stroke:none;" d="M414.667 128.333L415.333 128.667L414.667 128.333M478 128L480 130L478 128M486 128L487 133L488 133L486 128z"/>
<path style="fill:#b0b9b9; stroke:none;" d="M508 128L509 129L508 128z"/>
<path style="fill:#020a0a; stroke:none;" d="M83 129L84 130L83 129M91 129L91 131L93 131L91 129z"/>
<path style="fill:#b0b9b9; stroke:none;" d="M252 129L253 130L252 129z"/>
<path style="fill:#115656; stroke:none;" d="M289 129L290 130L289 129z"/>
<path style="fill:#839b9b; stroke:none;" d="M313 129L314 130L313 129z"/>
<path style="fill:#115656; stroke:none;" d="M326 129L326 130L330 130L326 129M352 129L348 132L348 133L356 133L356 132L352 129z"/>
<path style="fill:#839b9b; stroke:none;" d="M414 129L415 130L414 129z"/>
<path style="fill:#115656; stroke:none;" d="M423 129L423 130L427 130L423 129M465.667 129.333L466.333 129.667L465.667 129.333M75 130L77 132L77 130L75 130M78 130L79 131L78 130z"/>
<path style="fill:#020a0a; stroke:none;" d="M85.6667 130.333L86.3333 130.667L85.6667 130.333z"/>
<path style="fill:#115656; stroke:none;" d="M188 130L188 131L195 133L188 130M196 130L196 131L202 132L196 130z"/>
<path style="fill:#839b9b; stroke:none;" d="M251 130L252 131L251 130z"/>
<path style="fill:#115656; stroke:none;" d="M285.667 130.333L286.333 130.667L285.667 130.333z"/>
<path style="fill:#b0b9b9; stroke:none;" d="M290 130L291 131L290 130z"/>
<path style="fill:#839b9b; stroke:none;" d="M314 130L315 131L314 130z"/>
<path style="fill:#115656; stroke:none;" d="M344 130L345 131L344 130M356.667 130.333L357.333 130.667L356.667 130.333z"/>
<path style="fill:#839b9b; stroke:none;" d="M391 130L392 131L391 130z"/>
<path style="fill:#115656; stroke:none;" d="M415 130L416 131L415 130z"/>
<path style="fill:#020a0a; stroke:none;" d="M475 130L477 132L475 130z"/>
<path style="fill:#115656; stroke:none;" d="M509 130L510 131L509 130M80 131L81 132L80 131z"/>
<path style="fill:#020a0a; stroke:none;" d="M89 131L90 132L89 131M108 131L102 132L102 133L106 133L105 136L105 137L109 137L108 131z"/>
<path style="fill:#115656; stroke:none;" d="M181 131L181 133L185 133L185 131L181 131M204 131L204 132L207 132L204 131z"/>
<path style="fill:#839b9b; stroke:none;" d="M230 131L231 132L230 131M290 131L291 132L290 131M315 131L316 132L315 131z"/>
<path style="fill:#b0b9b9; stroke:none;" d="M343 131L344 132L343 131z"/>
<path style="fill:#115656; stroke:none;" d="M345 131L345 138L355 138L355 137L346 137L346 135L350 135L350 134L345 131z"/>
<path style="fill:#b0b9b9; stroke:none;" d="M392 131L393 132L392 131z"/>
<path style="fill:#115656; stroke:none;" d="M421 131L421 132L426 132L421 131z"/>
<path style="fill:#b0b9b9; stroke:none;" d="M509 131L510 132L509 131z"/>
<path style="fill:#020a0a; stroke:none;" d="M86 132L87 133L86 132M93.6667 132.333L94.3333 132.667L93.6667 132.333z"/>
<path style="fill:#115656; stroke:none;" d="M210.333 132.667L210.667 133.333L210.333 132.667M281.667 132.333L282.333 132.667L281.667 132.333M317 132L318 133L317 132z"/>
<path style="fill:#839b9b; stroke:none;" d="M341 132L342 133L341 132z"/>
<path style="fill:#020a0a; stroke:none;" d="M390 132L391 133L390 132z"/>
<path style="fill:#b0b9b9; stroke:none;" d="M416 132L417 133L416 132z"/>
<path style="fill:#115656; stroke:none;" d="M510 132L511 133L510 132z"/>
<path style="fill:#839b9b; stroke:none;" d="M66 133L66 134L72 134L66 133z"/>
<path style="fill:#b0b9b9; stroke:none;" d="M72.6667 133.333L73.3333 133.667L72.6667 133.333z"/>
<path style="fill:#839b9b; stroke:none;" d="M74 133L74 134L81 134L74 133z"/>
<path style="fill:#b0b9b9; stroke:none;" d="M81.6667 133.333L82.3333 133.667L81.6667 133.333z"/>
<path style="fill:#839b9b; stroke:none;" d="M83 133L83 134L86 134L83 133z"/>
<path style="fill:#b0b9b9; stroke:none;" d="M86 133L86 134L89 134L86 133z"/>
<path style="fill:#839b9b; stroke:none;" d="M89.6667 133.333L90.3333 133.667L89.6667 133.333z"/>
<path style="fill:#b0b9b9; stroke:none;" d="M91 133L91 134L97 134L91 133z"/>
<path style="fill:#839b9b; stroke:none;" d="M97 133L97 134L102 134L97 133z"/>
<path style="fill:#b0b9b9; stroke:none;" d="M102.667 133.333L103.333 133.667L102.667 133.333z"/>
<path style="fill:#115656; stroke:none;" d="M104 133L104 149L105 149L105 141L109 142L105 140L105 138L109 138L109 137L105 137L105 136L107 135L106 133L104 133M185.667 133.333L186.333 133.667L185.667 133.333M191 134L191 135L199 134L191 134M200 133L200 134L209 135L200 133z"/>
<path style="fill:#b0b9b9; stroke:none;" d="M231 133L233 135L231 133z"/>
<path style="fill:#115656; stroke:none;" d="M232 133L232 134L249 134L232 133z"/>
<path style="fill:#839b9b; stroke:none;" d="M291 133L292 134L291 133z"/>
<path style="fill:#b0b9b9; stroke:none;" d="M318 133L319 134L318 133z"/>
<path style="fill:#115656; stroke:none;" d="M322 134L322 135L334 135L322 134z"/>
<path style="fill:#839b9b; stroke:none;" d="M339 133L340 134L339 133M393 133L394 134L393 133M417 133L418 134L417 133z"/>
<path style="fill:#115656; stroke:none;" d="M470 133L471 134L470 133M511 133L512 134L511 133z"/>
<path style="fill:#839b9b; stroke:none;" d="M53 134L53 141L54 141L53 134z"/>
<path style="fill:#fefefe; stroke:none;" d="M54 134L54 141L61 141L61 134L54 134z"/>
<path style="fill:#839b9b; stroke:none;" d="M61.3333 134.667L61.6667 135.333L61.3333 134.667z"/>
<path style="fill:#b0b9b9; stroke:none;" d="M66 134L66 149L67 149L66 134z"/>
<path style="fill:#fefefe; stroke:none;" d="M67 134L67 149L104 149L104 134L67 134z"/>
<path style="fill:#115656; stroke:none;" d="M158.667 134.333L159.333 134.667L158.667 134.333z"/>
<path style="fill:#020a0a; stroke:none;" d="M234 134L234 135L247 135L234 134z"/>
<path style="fill:#839b9b; stroke:none;" d="M247 134L248 135L247 134z"/>
<path style="fill:#b0b9b9; stroke:none;" d="M320 134L321 135L320 134z"/>
<path style="fill:#839b9b; stroke:none;" d="M321 134L322 135L321 134z"/>
<path style="fill:#115656; stroke:none;" d="M335 134L336 135L335 134z"/>
<path style="fill:#839b9b; stroke:none;" d="M336 134L337 135L336 134z"/>
<path style="fill:#b0b9b9; stroke:none;" d="M337 134L338 135L337 134M394 134L395 135L394 134z"/>
<path style="fill:#115656; stroke:none;" d="M418 134L419 135L418 134z"/>
<path style="fill:#b0b9b9; stroke:none;" d="M440 134L441 135L440 134z"/>
<path style="fill:#115656; stroke:none;" d="M473 134L474 135L473 134z"/>
<path style="fill:#b0b9b9; stroke:none;" d="M488.333 134.667L488.667 135.333L488.333 134.667z"/>
<path style="fill:#839b9b; stroke:none;" d="M512 134L513 135L512 134M522 134L523 135L522 134M524 134L524 149L525 149L524 134z"/>
<path style="fill:#115656; stroke:none;" d="M108 135L109 136L108 135M181 135L182 136L181 135M183 135L181 138L181 139L189 138L189 137L183 135M210 135L195 137L195 138C197.694 138 211.418 138.434 210 135z"/>
<path style="fill:#839b9b; stroke:none;" d="M234 135L235 136L234 135z"/>
<path style="fill:#115656; stroke:none;" d="M245 135L246 136L245 135z"/>
<path style="fill:#b0b9b9; stroke:none;" d="M246 135L247 136L246 135z"/>
<path style="fill:#115656; stroke:none;" d="M282 135L282 136L289 138L282 135M292 135L293 136L292 135z"/>
<path style="fill:#b0b9b9; stroke:none;" d="M324 135L325 136L324 135z"/>
<path style="fill:#839b9b; stroke:none;" d="M325.667 135.333L326.333 135.667L325.667 135.333M331.667 135.333L332.333 135.667L331.667 135.333z"/>
<path style="fill:#b0b9b9; stroke:none;" d="M333 135L334 136L333 135z"/>
<path style="fill:#115656; stroke:none;" d="M359 135L360 136L359 135M387 135L387 136L390 136L387 135z"/>
<path style="fill:#839b9b; stroke:none;" d="M440 135L440 142L441 142L440 135M461 135L461 144L462 144L461 135z"/>
<path style="fill:#115656; stroke:none;" d="M468.667 135.333L469.333 135.667L468.667 135.333M475 135L478 137L478 136L475 135M479 135L480 136L479 135z"/>
<path style="fill:#b0b9b9; stroke:none;" d="M514 135L515 136L514 135z"/>
<path style="fill:#839b9b; stroke:none;" d="M515.667 135.333L516.333 135.667L515.667 135.333z"/>
<path style="fill:#115656; stroke:none;" d="M517 135L518 136L517 135z"/>
<path style="fill:#839b9b; stroke:none;" d="M518.667 135.333L519.333 135.667L518.667 135.333z"/>
<path style="fill:#b0b9b9; stroke:none;" d="M520 135L521 136L520 135M130 136L130 141L131 141L130 136z"/>
<path style="fill:#115656; stroke:none;" d="M158 136L159 137L158 136z"/>
<path style="fill:#b0b9b9; stroke:none;" d="M211 136L212 137L211 136M236 136L237 137L236 136z"/>
<path style="fill:#839b9b; stroke:none;" d="M237 136L237 137L242 137L237 136z"/>
<path style="fill:#b0b9b9; stroke:none;" d="M242.667 136.333L243.333 136.667L242.667 136.333M293 136L294 137L293 136z"/>
<path style="fill:#115656; stroke:none;" d="M381 136L381 137L386 137L381 136z"/>
<path style="fill:#839b9b; stroke:none;" d="M395 136L396 137L395 136z"/>
<path style="fill:#b0b9b9; stroke:none;" d="M419 136L420 137L419 136z"/>
<path style="fill:#115656; stroke:none;" d="M429 136L429 137L436 137L429 136M471 136L471 137L475 138L471 136M466 137L466 139L471 139L470 141L484 137L466 137z"/>
<path style="fill:#839b9b; stroke:none;" d="M488 136L489 137L488 136M211 137L212 138L211 137z"/>
<path style="fill:#b0b9b9; stroke:none;" d="M396 137L397 138L396 137z"/>
<path style="fill:#839b9b; stroke:none;" d="M420 137L421 138L420 137z"/>
<path style="fill:#115656; stroke:none;" d="M488 137L489 138L488 137z"/>
<path style="fill:#020a0a; stroke:none;" d="M105 138L105 140L109 140L109 138L105 138z"/>
<path style="fill:#115656; stroke:none;" d="M211 138L212 139L211 138M274 138L278 140L274 138M294 138L295 139L294 138M345 141L360 140L360 138L345 141M421 138L422 139L421 138z"/>
<path style="fill:#b0b9b9; stroke:none;" d="M212 139L213 140L212 139z"/>
<path style="fill:#839b9b; stroke:none;" d="M295 139L296 140L295 139M397 139L398 140L397 139M489 139L490 140L489 139z"/>
<path style="fill:#115656; stroke:none;" d="M131 140L131 142L138 142L138 140L131 140M181 142L184 140L181 142M212 140L213 141L212 140z"/>
<path style="fill:#839b9b; stroke:none;" d="M253 140L254 141L253 140z"/>
<path style="fill:#b0b9b9; stroke:none;" d="M254 140L254 150L255 150L254 140z"/>
<path style="fill:#839b9b; stroke:none;" d="M296 140L297 141L296 140z"/>
<path style="fill:#115656; stroke:none;" d="M396.667 140.333L397.333 140.667L396.667 140.333z"/>
<path style="fill:#b0b9b9; stroke:none;" d="M398 140L399 141L398 140M422 140L423 141L422 140z"/>
<path style="fill:#115656; stroke:none;" d="M423 140L424 141L423 140M53 141L54 142L53 141z"/>
<path style="fill:#b0b9b9; stroke:none;" d="M54 141L54 142L61 142L54 141M213 141L214 142L213 141M252 141L253 142L252 141z"/>
<path style="fill:#115656; stroke:none;" d="M253 141L254 142L253 141z"/>
<path style="fill:#839b9b; stroke:none;" d="M297 141L299 143L297 141M423 141L424 142L423 141M490 141L491 142L490 141z"/>
<path style="fill:#b0b9b9; stroke:none;" d="M130 142L130 150L131 150L130 142z"/>
<path style="fill:#115656; stroke:none;" d="M213 142L214 143L213 142M252 142L253 143L252 142M297 142L298 143L297 142M397 142L400 144L397 142z"/>
<path style="fill:#839b9b; stroke:none;" d="M399 142L400 143L399 142M424 142L425 143L424 142z"/>
<path style="fill:#115656; stroke:none;" d="M425 144L440 143C436.12 141.372 427.931 140.646 425 144z"/>
<path style="fill:#b0b9b9; stroke:none;" d="M440 142L441 143L440 142z"/>
<path style="fill:#839b9b; stroke:none;" d="M214 143L215 144L214 143z"/>
<path style="fill:#115656; stroke:none;" d="M251 143L252 144L251 143M274 143C274.654 146.054 276.007 145.936 279 146L279 145L274 143M299 143L300 144L299 143M345 143L346 144L345 143z"/>
<path style="fill:#b0b9b9; stroke:none;" d="M400 143L401 144L400 143z"/>
<path style="fill:#839b9b; stroke:none;" d="M440 143L440 150L441 150L440 143M491 143L492 144L491 143z"/>
<path style="fill:#b0b9b9; stroke:none;" d="M215 144L216 145L215 144z"/>
<path style="fill:#115656; stroke:none;" d="M250 144L251 145L250 144M300 144L301 145L300 144z"/>
<path style="fill:#b0b9b9; stroke:none;" d="M425 144L426 145L425 144M461 144L462 145L461 144M492 144L493 145L492 144M216 145L217 146L216 145z"/>
<path style="fill:#115656; stroke:none;" d="M249 145L250 146L249 145z"/>
<path style="fill:#b0b9b9; stroke:none;" d="M302 145L303 146L302 145z"/>
<path style="fill:#115656; stroke:none;" d="M397 146L397 149L403 149L402 145L397 146z"/>
<path style="fill:#839b9b; stroke:none;" d="M426 145L427 146L426 145M461 145L461 150L462 150L461 145z"/>
<path style="fill:#b0b9b9; stroke:none;" d="M493 145L494 146L493 145M217 146L218 147L217 146z"/>
<path style="fill:#115656; stroke:none;" d="M248 146L249 147L248 146M303 146L304 147L303 146z"/>
<path style="fill:#b0b9b9; stroke:none;" d="M402 146L403 147L402 146z"/>
<path style="fill:#115656; stroke:none;" d="M427 146L428 147L427 146z"/>
<path style="fill:#b0b9b9; stroke:none;" d="M494 146L495 147L494 146z"/>
<path style="fill:#839b9b; stroke:none;" d="M218 147L219 148L218 147z"/>
<path style="fill:#b0b9b9; stroke:none;" d="M246 147L247 148L246 147z"/>
<path style="fill:#839b9b; stroke:none;" d="M305 147L306 148L305 147M344 147L345 148L344 147M495 147L496 148L495 147z"/>
<path style="fill:#115656; stroke:none;" d="M219 148L220 149L219 148z"/>
<path style="fill:#b0b9b9; stroke:none;" d="M220 148L221 149L220 148z"/>
<path style="fill:#115656; stroke:none;" d="M245 148L246 149L245 148z"/>
<path style="fill:#839b9b; stroke:none;" d="M307 148L308 149L307 148z"/>
<path style="fill:#b0b9b9; stroke:none;" d="M308 148L309 149L308 148z"/>
<path style="fill:#839b9b; stroke:none;" d="M342 148L343 149L342 148z"/>
<path style="fill:#115656; stroke:none;" d="M343 148L344 149L343 148z"/>
<path style="fill:#839b9b; stroke:none;" d="M403 148L404 149L403 148z"/>
<path style="fill:#b0b9b9; stroke:none;" d="M428 148L429 149L428 148z"/>
<path style="fill:#115656; stroke:none;" d="M496 148L497 149L496 148M81 149L81 150L98 150L81 149M221 149L222 150L221 149z"/>
<path style="fill:#b0b9b9; stroke:none;" d="M222 149L223 150L222 149M242 149L243 150L242 149z"/>
<path style="fill:#115656; stroke:none;" d="M243 149L244 150L243 149M309 149L310 150L309 149z"/>
<path style="fill:#839b9b; stroke:none;" d="M310 149L311 150L310 149z"/>
<path style="fill:#b0b9b9; stroke:none;" d="M339 149L340 150L339 149z"/>
<path style="fill:#115656; stroke:none;" d="M340 149L341 150L340 149z"/>
<path style="fill:#839b9b; stroke:none;" d="M380 149L381 150L380 149z"/>
<path style="fill:#b0b9b9; stroke:none;" d="M404 149L405 150L404 149z"/>
<path style="fill:#839b9b; stroke:none;" d="M429 149L430 150L429 149z"/>
<path style="fill:#115656; stroke:none;" d="M498 149L499 150L498 149z"/>
<path style="fill:#b0b9b9; stroke:none;" d="M499 149L500 150L499 149z"/>
<path style="fill:#839b9b; stroke:none;" d="M523 149L524 150L523 149z"/>
<path style="fill:#115656; stroke:none;" d="M164 150C167.331 154.936 172.559 155.476 178 157L178 150L164 150z"/>
<path style="fill:#839b9b; stroke:none;" d="M224 150L225 151L224 150z"/>
<path style="fill:#b0b9b9; stroke:none;" d="M225 150L226 151L225 150M239 150L240 151L239 150z"/>
<path style="fill:#839b9b; stroke:none;" d="M240 150L241 151L240 150z"/>
<path style="fill:#115656; stroke:none;" d="M241 150L242 151L241 150M312 150L313 151L312 150z"/>
<path style="fill:#839b9b; stroke:none;" d="M313 150L314 151L313 150z"/>
<path style="fill:#b0b9b9; stroke:none;" d="M314 150L315 151L314 150M334.667 150.333L335.333 150.667L334.667 150.333z"/>
<path style="fill:#839b9b; stroke:none;" d="M336 150L337 151L336 150z"/>
<path style="fill:#115656; stroke:none;" d="M337 150L338 151L337 150M472 150L473 151L472 150M500 150L501 151L500 150z"/>
<path style="fill:#839b9b; stroke:none;" d="M501 150L502 151L501 150z"/>
<path style="fill:#b0b9b9; stroke:none;" d="M502 150L503 151L502 150M519 150L520 151L519 150z"/>
<path style="fill:#839b9b; stroke:none;" d="M520 150L521 151L520 150z"/>
<path style="fill:#115656; stroke:none;" d="M521 150L522 151L521 150M227.667 151.333L228.333 151.667L227.667 151.333z"/>
<path style="fill:#839b9b; stroke:none;" d="M229 151L229 152L232 152L229 151z"/>
<path style="fill:#b0b9b9; stroke:none;" d="M232 151L233 152L232 151z"/>
<path style="fill:#839b9b; stroke:none;" d="M233 151L233 152L236 152L233 151z"/>
<path style="fill:#115656; stroke:none;" d="M236.667 151.333L237.333 151.667L236.667 151.333M316 151L316 152L319 152L316 151z"/>
<path style="fill:#839b9b; stroke:none;" d="M319 151L319 152L323 152L319 151z"/>
<path style="fill:#b0b9b9; stroke:none;" d="M323 151L324 152L323 151z"/>
<path style="fill:#839b9b; stroke:none;" d="M324 151L324 152L330 152L324 151z"/>
<path style="fill:#115656; stroke:none;" d="M330.667 151.333L331.333 151.667L330.667 151.333M434 157C442.625 166.427 454.141 167.825 466 165L466 161C457.87 152.636 444.422 146.665 434 157M504.667 151.333L505.333 151.667L504.667 151.333z"/>
<path style="fill:#839b9b; stroke:none;" d="M506 151L506 152L510 152L506 151z"/>
<path style="fill:#b0b9b9; stroke:none;" d="M510 151L511 152L510 151z"/>
<path style="fill:#839b9b; stroke:none;" d="M511 151L511 152L515 152L511 151z"/>
<path style="fill:#115656; stroke:none;" d="M515.667 151.333L516.333 151.667L515.667 151.333M180 153L187 161L183 156L182 153L180 153M317.11 153.786C307.902 157.118 321.441 171.788 327.682 169.342C335.036 166.459 324.052 151.275 317.11 153.786M191 160L188 159L189 163L192 162C196.658 168.798 206.016 165.358 204 157L198 157C197.259 151.206 191.952 156.97 191 160z"/>
<path style="fill:#020a0a; stroke:none;" d="M183 157L184 158L183 157M192 158L196 161L198 158L192 158M190 161L191 162L190 161z"/>
<path style="fill:#115656; stroke:none;" d="M118 165C115.645 173.046 123.794 170.303 118 165z"/>
</svg>
