<?xml version="1.0" standalone="yes"?>
<svg xmlns="http://www.w3.org/2000/svg" width="553" height="450">
<path style="fill:#021212; stroke:none;" d="M0 0L0 450L63.9992 449.995L84 447L97 443L97 444L90 445C89.4532 449.185 82.5673 448.94 79 449L79 450L137 449.91L168 446L168 447L147 449L147 450L228 450L279 448L278 450C308.073 450 338.577 452.249 368 445L352 449L352 450C362.584 450 378.383 452.768 388 448L399 449.995L432 444L431 446L436 445L426 449L426 450L533 450L533 446L521 445L521 444L534 438L534 443L535 443L536 440L540 439L540 450L553 450L553 0C548.457 0 533.663 -2.27652 533 3L523 0L523 2L499 0L449 0L449 1C456.446 4.80106 464.178 11.1729 469 18C459.046 9.89471 450.638 0.0391235 437 0L437 1L453 9L453 10L434 0.699066L410 0L410 1C429.686 5.55637 442.449 21.9607 460 30L440 13L466 28.6906L488.285 28.9699L516 30L516 97L497 97L498 103L497 103C494.068 92.1306 465.538 97 456 97C451.932 97 445.848 95.7407 443 99L442 99L439 97L440 99L438 97L435 97L435 101L438 100C438.075 102.182 440.374 115.868 443 112L447 114L446 111C456.604 117.365 473.032 115 485 115L485 341L491 339L488 344L489 340L488 340L485 349L485 374L486 374L488 373L488 369L491 371L491 372C480.847 381.313 485 401.333 485 414C476.407 414.097 470.873 420.248 465 426L464 425L467 423L465 422L465 421L469 421L469 420L467 419L475 415L475 414L434 414L434 342L432 343L434 335L433 334L432 334L431 335L431 339L418 348L425 337L421 338L421 341L413 345L418 339L410 346L410 347L410 354L414 352C408.777 358.177 410 365.318 410 373L410 414L350 414C343.737 414 333.457 416.27 330 410L325 410L325 409L330 409L330 398L321 399L321 398L330 397L328 394L328 393L330 391L322 391C322 394.547 317.652 392.209 315 392L315 391L325 390L325 389L313 390L316 393L313 394L313 414L244 414C238.167 414 223.981 411.444 220 416L225 415L225 416L221 417L221 418L226 418L226 419L219 418L225 420L225 421L210 424L211 427L207 425L210 429L204 433L201 430C183.415 430.146 162.08 438.714 145 435L145 434L160 433L160 432L158 430L187 427L187 426L180 426L180 425L196 424L196 423L172 425L172 426L179 426L179 427L145 431L145 430L154 429L154 428L143 428L143 427L159 425L159 424L154 423C154 426.901 150.278 423.742 149 422L157 421L157 420L152 420L152 419L158 417L149 419C150.39 416.684 152.128 416.626 149 416L149 415L156 412L153 414L151 411L127 410L127 409L132 408L132 407L126 408L127 404L133 405L133 404L129 403L132 402L132 401L130 401L130 400L134 400L134 399L131 399L132 396L128 396L128 395L131 395L131 394L127 394L127 393L131 393L130 391L136 390L133 388L130 390L130 389L132 388L129 387L129 386L134 387L122 385C121.88 381.308 121.687 379.223 118 378L119 375L115 375L113 370L117 371L117 370L114 370L115 365L120 362L114 361L116 358L116 357C112.973 355.078 113.098 353.353 114 350L101 348L99 344L100 337L97 338L102 335L102 334C101.627 330.392 104.692 329.065 108 329L108 328L108 327L98 330C100.037 324.448 104.825 323.123 110 321L110 320L107 320L107 319L113 315L105 316L104 315C106.173 308.998 112.005 302.195 106.785 295.603C104.353 292.531 96.4693 294 93 294L52 294L49 285L50 287L49 287L45 287L45 286C49.9993 283.306 51.4253 279.486 52 274L21 293L25 269L17 269L17 253C22.0362 252.982 25.7825 252.975 25 247L30 242L31 245L31 246L30 248L29 246L28 246L30 252L29 252L27 250L30 253L31 249L32 249L31 254L36 257L43 256L47 253L43 262L62 246L62 245L59 245L59 244L63 243L64 244L63 247L64 247L66 242L70 243L73 235L73 234L70 233L72 229L80 229L78 225L82 223L81 226L82 220L85 221L83 219L83 218L85 217L83 214C90.9167 214.122 89.9994 202.778 90 197C95.2822 197 100.65 198.187 102 192L105 193L103 191L101 184L105 185L107 181L104 180L104 179L107 177L118 180L112 176L114 172L131 175C123.455 164.955 105.315 177.108 97.6034 169.397C93.9772 165.77 96 154.762 96 150L96 94L142 94L142 159L146 157L154 159L154 158L148 158L148 157L151 156L151 155L145 156L145 153L146 153L176 156L176 155L168 154C167.569 150.886 164.913 151.103 162 151L162 150L177 151L177 150L168 149L168 148L174 149L174 148L166 147L166 146C168.728 145.629 173.168 146.389 175.258 144.361C179.809 139.945 177 123.993 177 118L302 118L302 117L299 117L304 113L304 112L299 112L299 111L303 111L303 110L297 111L296 108L315 105L315 104L300 104L300 103L314 102L314 100L294.996 97.0178L256 99L256 100L264 100L264 102L248 103L250 99L252 100L253 100L253 99L248 99C244.011 94.4346 229.868 97 224 97C223.987 93.8058 224.403 91.7292 221 91L221 90L224 90L224 79L221 80L224 78L224 77L210 76L210 75L212 75L212 74L208 74L208 73L217 72L217 71L208 72L215 69L215 68L210 67L210 66L219 64L208 67L203 66L203 102L172 102L159.603 100.397L158 90L158 64L129 64L129 65L155 65L155 66L122 67L122 68L134 68L134 69L114 69L114 70L124 70L124 71L122 71L122 72L135 72L135 73L123 74L123 75L136 75L136 78L125 78L125 79L138 79L138 80L92 80L92 79L102 79L102 78L88 77L91 76L91 75L87 75L87 74L90 74L90 73L85 72L85 71L91 71L91 70L85 70L85 69L95 69L95 68L83 69L80 66L107 63L101 58L105 55L105 54L101 54L101 53L118 52L115 49L115 48L121 48L119 44L122 45L118 43L119 47L112 45L112 44L117 44L117 43L115 43L115 42L143 40L143 39L132 40L132 39L139 39L139 38L126 37L127 40L111 40L111 39L124 38L124 37L110 37L110 36L115 36L115 35L107 35L107 34L133 31.0579L176 27L176 26L157 25L157 23L254 7L254 9L226 12L219 21L236 18L220 26L235 25L235 26L229 28L229 29L342 29L342 28L306 27L306 26L316 24C324.349 29.6036 342.095 26.2183 352 27L352 26L304 23L304 21L350 24L350 23L324 16L324 17L326 17L326 18L320 18L318 16L318 15L344 17L344 15L337 15L337 14L340 13L340 12C337.06 12.98 333.035 15.8603 334 12L329 14L329 13L332 12L332 11L321 9L321 8L342 9L341 12L363 14L363 15L360 16L360 17C365.468 15.7061 370.161 15.3009 374 20L385 19L387 23L386 21L387 21L389 24L390 24L390 21L397 23L402 28L400 25C402.973 25.9885 413.209 31.7432 414 27L423 28L423 27L418 26L445 29L445 28L435 20C440.731 24.4055 446.468 29.4473 454 29C442.662 13.6065 421.26 11.6888 408 0C388.549 1.31955 368.515 -0.00125122 349 0C343.718 0.000335693 331.585 -2.10229 328 2L327 2L326 0L325 0L317 2L317 1L319 1L319 0L292 0L293 2L274 3L276 1L251 0L195 0L0 0z"/>
<path style="fill:#084f4f; stroke:none;" d="M230 0L230 1L239 1L230 0M274 3L293 2C288.723 -1.24017 277.319 -1.69711 274 3M317 1L317 2L325 0L317 1z"/>
<path style="fill:#021212; stroke:none;" d="M321 0L321 1L324 1L321 0z"/>
<path style="fill:#084f4f; stroke:none;" d="M327.333 0.666656L327.667 1.33334L327.333 0.666656M337.667 0.333344L338.333 0.666656L337.667 0.333344M405 0L406 1L405 0M408 0L424 8.31174L454 29L450 29L450 30L458 30C447.873 16.2507 424.453 3.80624 408 0M434 0L434 1L453 10L453 9L434 0M445 0L445 1L469 18C465.256 9.99319 453.915 0.919067 445 0M521 0L524 2L521 0M524 0L524 1L533 3L533 0L524 0M226 1L226 2L230 2L226 1M223 4L223 5C226.162 5.465 231.393 2.88504 232 7L233 7L234 7L233 4L235 6L243 1L223 4M159 3L159 4L167 4L159 3M330 2L331 3L330 2M524 2L525 3L524 2M191 4L191 5L197 6L196 3L191 4M198 4L198 5L201 5L198 4M286.333 3.66666L286.667 4.33334L286.333 3.66666M293 3L294 4L293 3M296 3L297 4L296 3M325 3L325 4L329 4L329 3L325 3M154 4L146 6L146 7L154 4M156 4L157 5L156 4M178 4L178 5L180 7L181 7L178 4M185.667 4.33334L186.333 4.66666L185.667 4.33334M218 4L217 6L218 4M323 4L324 5L323 4M333 4L333 5L350 7L333 4M532 4L533 5L532 4M160 7L160 8L176 8L177 8L178 6L160 7M213 5L213 6L216 6L213 5M501 5L519 28L524 30C517.813 20.9497 510.377 10.8692 501 5M160 17L160 18L165 18L165 19L162 19L162 20L198 15.25L212 11L186 15L186 14L224 8C220.803 4.39835 213.337 7.44907 209 8L209 7L212 7L198 9.71835L160 17M351 8L354 6L351 8M383 6L384 7L383 6M190.667 7.33334L191.333 7.66666L190.667 7.33334M157 23L157 25L176 26L176 27L132 31.0579L107 34L107 35L115 35L115 36L110 36L110 37L124 37L124 38L111 39L111 40L127 40L126 37L139 38L139 39L132 39L132 40L143 39L143 40L115 42L115 43L117 43L117 44L112 44L112 45L119 47L118 43L122 45L119 44L121 48L115 48L115 49L118 52L101 53L101 54L105 54L105 55L101 58L107 63L80 66L83 69L95 68L95 69L85 69L85 70L91 70L91 71L85 71L85 72L90 73L90 74L87 74L87 75L91 75L91 76L88 77L102 78L102 79L92 79L92 80L138 80L138 79L125 79L125 78L136 78L136 75L123 75L123 74L135 73L135 72L122 72L122 71L124 71L124 70L114 70L114 69L134 69L134 68L122 68L122 67L155 66L155 65L129 65L129 64L158 64L158 90L159.028 100.397L171 102L203 102L203 101L159 101L159 59L165 58L165 57L151 57L151 56L166 55L166 54L139 54L139 53L158 52L158 51L155 51L155 50L186 47L186 48L180 48L180 49L202 49L204 48L189 49L189 50L192 50L192 51L182 50L182 51L184 53L203 52L203 53L201 53L201 54L204 54L204 55L198 55L198 56L204 56L204 57L182 57L182 58L204 58L203 66L208 67L219 64L210 66L210 67L215 68L215 69C211.637 69 208.796 68.2842 208 72L217 71L217 72L208 73L208 74L212 74L212 75L210 75L210 76L224 77L224 78L221 80L224 79C224 83.1923 224.825 87.5205 221 90L221 91L224 91L224 97L225 97L225 30L449 30L449 29L435 20L445 28L445 29L429 28.6088L418 26L423 27L423 28L414 27C414 31.7647 403.067 25.565 400 25L402 28L397 23C393.984 23.1077 390.561 19.3686 390 24L389 24L386 21L387 23L385 19L374 20C370.861 14.5955 365.23 15.1343 360 17L360 16L363 15L363 14L341 12L342 9L321 8L321 9L332 11L332 12L329 13L329 14L334 12C334.528 15.0976 337.874 13.0898 340 12L340 13L337 14L337 15L344 15L344 17L318 15L318 16L320 18L326 18L326 17L324 17L324 16L350 23L350 24L304 21L304 23L352 26L352 27L316 24L306 26L306 27L342 28L342 29L229 29L229 28L235 26L235 25L220 26L236 18L219 21L226 12L254 9L254 7L157 23M287 10L296 10L296 13L308 10L307 12L308 12L309 9L316 9L316 8L306 7L306 9C301.597 5.91583 290.175 5.10312 287 10M355 7L356 8L355 7M357 7L357 8L361 8L357 7M363 7L363 9L365 9L363 7M386 7L387 8L386 7M388 7L391 9L391 8L388 7M184 8L185 9L184 8M392 8L395 10L395 9L392 8M402 8L403 9L402 8M320 9L321 10L320 9M345 9L345 10L349 10L345 9M405 9L406 10L405 9M170 10L170 11L175 11L170 10z"/>
<path style="fill:#021212; stroke:none;" d="M299 10L299 12L301 12L299 10M302 10L304 12L302 10z"/>
<path style="fill:#084f4f; stroke:none;" d="M353 10L353 11L356 11L353 10M396.667 10.3333L397.333 10.6667L396.667 10.3333M407 10L408 11L407 10M164 11L165 12L164 11M168 11L169 12L168 11M362.667 11.3333L363.333 11.6667L362.667 11.3333M379 11L380 12L379 11M409 11L409 12L434 25C428.135 17.9038 417.72 13.4927 409 11M159.667 12.3333L160.333 12.6667L159.667 12.3333M368 12L368 13L372 13L368 12M383 12L384 13L383 12z"/>
<path style="fill:#021212; stroke:none;" d="M219 13L219 14L223 14L219 13z"/>
<path style="fill:#084f4f; stroke:none;" d="M374 13L374 14L400 21C393.288 15.9258 382.284 13.6766 374 13M440 13C445.419 19.3687 457.561 29.7262 466 30C459.823 21.4137 449.979 15.9073 440 13M443 13L444 14L443 13M296 17L318 17L317 14C310.986 14.408 299.641 11.384 296 17M392 14L392 16L394 16L392 14z"/>
<path style="fill:#021212; stroke:none;" d="M181 15L181 16L185 16L181 15M315 15L316 16L315 15z"/>
<path style="fill:#084f4f; stroke:none;" d="M396 16L400 18L398 15L396 16z"/>
<path style="fill:#021212; stroke:none;" d="M175.667 16.3333L176.333 16.6667L175.667 16.3333M165 17L165 18L170 18L165 17z"/>
<path style="fill:#084f4f; stroke:none;" d="M245 17L246 18L245 17z"/>
<path style="fill:#021212; stroke:none;" d="M351.333 17.6667L351.667 18.3333L351.333 17.6667M365 17L366 18L365 17M367 17L368 18L367 17z"/>
<path style="fill:#084f4f; stroke:none;" d="M374 17L375 18L374 17M376 17L377 18L376 17M401 17L401 18L406 20L401 17M309 18L311 20L309 18z"/>
<path style="fill:#021212; stroke:none;" d="M353 19L353 20L375 23C376.218 28.5654 382.572 26.7389 387 27L387 28L383 28L383 29L389 27L399 29C389.06 22.3229 364.682 15.5792 353 19M371 18L372 19L371 18z"/>
<path style="fill:#084f4f; stroke:none;" d="M470 18L474 23L470 18M246 19L246 20L251 20L246 19M307 19L308 20L307 19z"/>
<path style="fill:#021212; stroke:none;" d="M339 19L339 21L341 21L339 19M344 19L344 20L350 20L344 19z"/>
<path style="fill:#084f4f; stroke:none;" d="M407 19C409.411 22.6924 413.641 24.909 418 25L407 19M117 21L117 22L124 21L117 21z"/>
<path style="fill:#021212; stroke:none;" d="M380 20L383 22L380 20z"/>
<path style="fill:#084f4f; stroke:none;" d="M108 21L109 22L108 21M301.667 21.3333L302.333 21.6667L301.667 21.3333M401 21L402 22L401 21z"/>
<path style="fill:#021212; stroke:none;" d="M199.667 22.3333L200.333 22.6667L199.667 22.3333z"/>
<path style="fill:#084f4f; stroke:none;" d="M106 24L106 25L117 24L106 24z"/>
<path style="fill:#021212; stroke:none;" d="M351 23L352 24L351 23M391 23L391 24L394 24L391 23z"/>
<path style="fill:#084f4f; stroke:none;" d="M406 23L407 24L406 23M92 24L93 25L92 24M97 24L97 25L102 25L97 24M122 29L116 27L113 31L113 27L108 26L108 27L112 27L111 31L107 32L108 29L107 29L101 33L126 33L125 30L138 30L138 29L132 29L132 28L134 28L134 27L131 27L131 26L152 27L153 27L155 24C146.755 25.3537 138.265 24.3858 130 25.588C126.655 26.0744 122.482 25.1612 122 29M257 24L258 25L257 24M319 24L320 25L319 24M375 24L375 25L380 26L380 25L375 24M398.667 24.3333L399.333 24.6667L398.667 24.3333M408 24L409 25L408 24z"/>
<path style="fill:#021212; stroke:none;" d="M179 25L179 27L181 27L179 25M184.667 25.3333L185.333 25.6667L184.667 25.3333z"/>
<path style="fill:#084f4f; stroke:none;" d="M254 25L255 26L254 25z"/>
<path style="fill:#021212; stroke:none;" d="M369 25L370 26L369 25M372 25L373 26L372 25z"/>
<path style="fill:#084f4f; stroke:none;" d="M381 25L382 26L381 25z"/>
<path style="fill:#021212; stroke:none;" d="M395 25L396 26L395 25z"/>
<path style="fill:#084f4f; stroke:none;" d="M410 25L411 26L410 25M435 25L436 26L435 25z"/>
<path style="fill:#021212; stroke:none;" d="M196 26L197 27L196 26M353.667 26.3333L354.333 26.6667L353.667 26.3333z"/>
<path style="fill:#084f4f; stroke:none;" d="M412.667 26.3333L413.333 26.6667L412.667 26.3333M430 26L431 27L430 26M488.667 26.3333L489.333 26.6667L488.667 26.3333z"/>
<path style="fill:#021212; stroke:none;" d="M122 27L123 28L122 27M127 27L127 28L130 28L127 27z"/>
<path style="fill:#084f4f; stroke:none;" d="M138.667 27.3333L139.333 27.6667L138.667 27.3333z"/>
<path style="fill:#021212; stroke:none;" d="M187 27L187 28L190 28L187 27z"/>
<path style="fill:#084f4f; stroke:none;" d="M250.667 27.3333L251.333 27.6667L250.667 27.3333M254 27L254 28L257 28L254 27M260 27L261 28L260 27z"/>
<path style="fill:#021212; stroke:none;" d="M369.667 27.3333L370.333 27.6667L369.667 27.3333z"/>
<path style="fill:#084f4f; stroke:none;" d="M438 27L439 28L438 27M109 28L110 29L109 28z"/>
<path style="fill:#021212; stroke:none;" d="M179 28L179 29L184 29L179 28M374.667 28.3333L375.333 28.6667L374.667 28.3333z"/>
<path style="fill:#084f4f; stroke:none;" d="M485 29L485 30L501 30L485 29M139 29L139 30L142 30L139 29z"/>
<path style="fill:#021212; stroke:none;" d="M143 35L138 35L138 36L187 32L187 31L167 32L177 30C170.624 26.9273 157.985 30.838 151 31.7407C147.804 32.1537 143.514 31.2825 143 35z"/>
<path style="fill:#084f4f; stroke:none;" d="M467 29L467 30L483 30L467 29z"/>
<path style="fill:#a7d5d5; stroke:none;" d="M225 30L225 96L322 96C316.312 89.0135 307.225 83.9971 300 78.6296C284.731 67.2868 269.367 56.0588 254 44.8488C244.627 38.0111 237.113 30.0094 225 30z"/>
<path style="fill:#5db2b2; stroke:none;" d="M234 30L234 31C263.622 51.1504 294.913 72.5636 322 96L225 96L225 97L331 97C330.71 105.317 342.968 111.22 349 115.576C369.08 130.075 388.494 147.747 410 160L410 97L516 96L516 30L234 30z"/>
<path style="fill:#021212; stroke:none;" d="M199 31L199 32L203 32L199 31z"/>
<path style="fill:#084f4f; stroke:none;" d="M524 31L525 32L524 31M97 32L98 33L97 32z"/>
<path style="fill:#021212; stroke:none;" d="M128 33L128 34L132 33L128 33M133 32L133 33L136 33L133 32M137.667 32.3333L138.333 32.6667L137.667 32.3333M140 32L141 33L140 32M140 37L140 38L194 33L175 34.5748L140 37M195 32L196 33L195 32z"/>
<path style="fill:#084f4f; stroke:none;" d="M105 35L103 38L108 38L108 37L105 35z"/>
<path style="fill:#021212; stroke:none;" d="M135 35L136 36L135 35z"/>
<path style="fill:#084f4f; stroke:none;" d="M101 36L100 38L102 38L101 36z"/>
<path style="fill:#021212; stroke:none;" d="M147 39C154.576 47.6806 179.981 39.4302 190 39C177.298 33.1506 160.722 40.7342 147 39M203.667 36.3333L204.333 36.6667L203.667 36.3333z"/>
<path style="fill:#084f4f; stroke:none;" d="M92 37L92 38L96 38L92 37M97.6667 37.3333L98.3333 37.6667L97.6667 37.3333M181 37L183 39L181 37z"/>
<path style="fill:#021212; stroke:none;" d="M192 37L192 38L198 38L192 37z"/>
<path style="fill:#084f4f; stroke:none;" d="M130.333 38.6667L130.667 39.3333L130.333 38.6667M104 39L104 40L107 41L104 39M108 39L108 40L108 41L111 41L111 40L108 39M128 39L129 40L128 39z"/>
<path style="fill:#021212; stroke:none;" d="M154 45L154 46L159 46L159 47L143 47L143 48L199 44L199 42C194.997 42 187.027 44.8902 188 41L154 45M200 43L200 44L208 41L200 43z"/>
<path style="fill:#084f4f; stroke:none;" d="M96 42L96 43L105 43L96 42M110 42L111 43L110 42M113 42L114 43L113 42z"/>
<path style="fill:#021212; stroke:none;" d="M129.667 42.3333L130.333 42.6667L129.667 42.3333M137 42L137 43L152 43L137 42M125.667 43.3333L126.333 43.6667L125.667 43.3333z"/>
<path style="fill:#084f4f; stroke:none;" d="M181 43L181 44L185 44L181 43z"/>
<path style="fill:#5db2b2; stroke:none;" d="M224 43L225 44L224 43z"/>
<path style="fill:#084f4f; stroke:none;" d="M99 46L99 47L111 44L99 46M174.667 44.3333L175.333 44.6667L174.667 44.3333z"/>
<path style="fill:#021212; stroke:none;" d="M103 45L104 46L103 45M105 45L106 46L105 45M116 45L117 46L116 45z"/>
<path style="fill:#084f4f; stroke:none;" d="M164 45L164 46L168 46L164 45M111.667 46.3333L112.333 46.6667L111.667 46.3333z"/>
<path style="fill:#021212; stroke:none;" d="M138 46L139 47L138 46M209 46L210 47L209 46M211 46L212 47L211 46M122 47L122 48L125 48L122 47M126 47L126 48L132 48L126 47M133.667 47.3333L134.333 47.6667L133.667 47.3333M155 50L155 51L158 51L158 52L139 53L139 54L166 54L166 55L151 56L151 57L165 57L164 59L184 59L184 58L182 58L182 57L204 57L204 56L198 56L198 55L204 55L204 54L201 54L201 53L203 53L203 52L184 53L182 51L182 50L192 51L192 50L189 50L189 49C193.565 49.3603 200.633 51.8528 204 48L202 49L203 47L180 49L180 48L186 48C178.986 45.0843 162.451 48.2261 155 50M204 47L204 48L208 48L204 47M209 49L209 50L220 49L209 49z"/>
<path style="fill:#5db2b2; stroke:none;" d="M224 47L225 48L224 47z"/>
<path style="fill:#084f4f; stroke:none;" d="M99 48L99 49L105 49L105 50L98 51L98 52L115 52L115 51L110 51L110 50L115 50L99 48z"/>
<path style="fill:#021212; stroke:none;" d="M221 48L222 51L216 51L216 52L219 52L219 53L210 52L210 53L224 54L224 48L221 48M106 49L107 50L106 49M108 49L109 50L108 49M119 49L121 51L119 49z"/>
<path style="fill:#084f4f; stroke:none;" d="M173 49L173 50L178 50L173 49z"/>
<path style="fill:#021212; stroke:none;" d="M122 50L123 51L122 50z"/>
<path style="fill:#084f4f; stroke:none;" d="M159 50L159 51L169 51L159 50z"/>
<path style="fill:#021212; stroke:none;" d="M127 51L126 53L128 53L127 51M130 51L130 52L133 52L130 51M134 51L135 52L134 51z"/>
<path style="fill:#084f4f; stroke:none;" d="M175 51L176 52L175 51z"/>
<path style="fill:#021212; stroke:none;" d="M120.667 52.3333L121.333 52.6667L120.667 52.3333M124 52L125 53L124 52z"/>
<path style="fill:#084f4f; stroke:none;" d="M163 52L163 53L166 53L163 52z"/>
<path style="fill:#021212; stroke:none;" d="M118 53L118 55L120 55L118 53M106 54L107 55L106 54M121 54L122 55L121 54z"/>
<path style="fill:#084f4f; stroke:none;" d="M180 55L180 56L193 57L194 57L197 55L180 55z"/>
<path style="fill:#021212; stroke:none;" d="M150 55L151 56L150 55M204.667 55.3333L205.333 55.6667L204.667 55.3333M214 56L214 57L224 56L214 56z"/>
<path style="fill:#084f4f; stroke:none;" d="M169 56L169 57L178 57L169 56z"/>
<path style="fill:#021212; stroke:none;" d="M219 58L219 59L224 58L219 58M140 59L140 60L158 61C154.82 56.0954 145.018 57.5167 140 59z"/>
<path style="fill:#084f4f; stroke:none;" d="M173 58L173 59L176 59L173 58z"/>
<path style="fill:#021212; stroke:none;" d="M199 58L199 59L204 59L199 58z"/>
<path style="fill:#f8fbfb; stroke:none;" d="M159 59L159 101L203 101L203 59L159 59z"/>
<path style="fill:#021212; stroke:none;" d="M218 60L218 61L224 62L224 61L218 60M148 62L148 63L158 63L148 62M204.667 62.3333L205.333 62.6667L204.667 62.3333M210 63L210 64L213 64L210 63M221 64L222 65L221 64M223 64L224 65L223 64z"/>
<path style="fill:#084f4f; stroke:none;" d="M78 65L79 66L78 65z"/>
<path style="fill:#021212; stroke:none;" d="M95 65L95 66L98 66L95 65M85.6667 66.3333L86.3333 66.6667L85.6667 66.3333z"/>
<path style="fill:#084f4f; stroke:none;" d="M203 67L203 76L204 76L203 67M206 67L207 68L206 67M209 67L210 68L209 67M81 68L82 69L81 68z"/>
<path style="fill:#021212; stroke:none;" d="M99.3333 68.6667L99.6667 69.3333L99.3333 68.6667M101.667 68.3333L102.333 68.6667L101.667 68.3333M104 68L105 69L104 68M106 68L107 69L106 68M109 68L110 69L109 68M97 69L98 70L97 69M112 69L113 70L112 69M103 70L104 71L103 70M105 70L106 71L105 70M108 70L107 72L108 70z"/>
<path style="fill:#084f4f; stroke:none;" d="M205 70L206 71L205 70M20 71L20 72L23 72L20 71z"/>
<path style="fill:#021212; stroke:none;" d="M120 71L121 72L120 71z"/>
<path style="fill:#5db2b2; stroke:none;" d="M224 72L225 73L224 72z"/>
<path style="fill:#084f4f; stroke:none;" d="M86 73L87 74L86 73z"/>
<path style="fill:#021212; stroke:none;" d="M103.667 73.3333L104.333 73.6667L103.667 73.3333M106 73L108 75L106 73M110 74L111 75L110 74M216 74L217 75L216 74z"/>
<path style="fill:#5db2b2; stroke:none;" d="M224 74L225 75L224 74z"/>
<path style="fill:#084f4f; stroke:none;" d="M85 75L86 76L85 75M137 75L138 76L137 75z"/>
<path style="fill:#021212; stroke:none;" d="M110 77L111 78L110 77M114 77L115 78L114 77z"/>
<path style="fill:#084f4f; stroke:none;" d="M203 77L204 78L203 77M207 77L208 78L207 77M209 77L209 78L212 78L209 77M25 78L25 79L26 84L30 85L31 87C31.1427 90.7556 33.4728 92.8785 37 94L37 95L22 97L25 101L22 100L22 101L32 106L30 110L31 110L35 108L35 109L32 110L35 111L35 112L32 112L32 113L39 117L39 118L35 118L39 123L39 124L36 124L36 125L44 126L44 127L33 128L33 129L36 129L36 130L32 130L32 131L38 133L37 136L42 142L40 145L44 147L45 149L45 154L44 157L45 157L47 155L46 159C41.1123 158.508 38.7175 159.971 36 164L39 164L39 165L32 169L38 169L32 172L35 175L28 181L21 191L21 192L21 193L23 193L21 199L49 196L47 190L47 186L47 185L63 175L63 174L58 174L58 173L72 173L72 172L55 172L55 144L75 140L75 139L68 139L68 138L72 132L75 132L69 131L66 129L66 128L82 126L82 125L78 126L77 122L84 121L84 120L84 118L84 117L79 117L79 116L83 116L83 115L73 110L73 109L76 109L75 106L72 108L76 104L76 103L61 99L61 98L66 98L66 97L62 97L62 96L69 96L69 95L66 95L66 94L75 93L75 92L66 93L69 91L69 90L63 93L61 89L67 88L67 87L60 86L60 88L40 85L40 84L55 84L55 83C50.7626 82.3604 43.0321 80.5232 40 84L34 83L34 82L39 82L39 81L25 78z"/>
<path style="fill:#021212; stroke:none;" d="M123 78L124 79L123 78z"/>
<path style="fill:#084f4f; stroke:none;" d="M139 79L140 80L139 79M218 79L219 80L218 79M41 80L41 81L52 81L41 80M86.6667 80.3333L87.3333 80.6667L86.6667 80.3333M108 82L108 83L119 81L108 82M516 80L516 87L517 87L516 80z"/>
<path style="fill:#021212; stroke:none;" d="M29.6667 81.3333L30.3333 81.6667L29.6667 81.3333z"/>
<path style="fill:#084f4f; stroke:none;" d="M54 81L55 82L54 81M57 81L58 82L57 81M59 81L60 82L59 81M61 81L62 82L61 81M120 82L120 83L132 82L120 82M133 81L134 82L133 81M216 81L216 82L223 83L216 81M92 82L93 83L92 82M94 82L94 83L99 83L94 82z"/>
<path style="fill:#021212; stroke:none;" d="M30 84L31 85L30 84z"/>
<path style="fill:#084f4f; stroke:none;" d="M61 84L62 85L61 84M64 84L65 85L64 84M104 84L104 85L111 85L104 84M122 85L122 86L128 85L122 85z"/>
<path style="fill:#021212; stroke:none;" d="M37 85L37 86L40 86L37 85z"/>
<path style="fill:#084f4f; stroke:none;" d="M118 85L119 86L118 85M120 85L121 86L120 85M216 85L216 86L219 86L216 85M221 85L223 87L221 85z"/>
<path style="fill:#021212; stroke:none;" d="M54 86L55 87L54 86z"/>
<path style="fill:#084f4f; stroke:none;" d="M112 86L112 87L117 87L112 86z"/>
<path style="fill:#021212; stroke:none;" d="M41 87L41 88L44 88L41 87z"/>
<path style="fill:#084f4f; stroke:none;" d="M102 87L102 88L105 88L102 87z"/>
<path style="fill:#021212; stroke:none;" d="M55 88L55 89L61 91L61 88L55 88z"/>
<path style="fill:#084f4f; stroke:none;" d="M119 88L120 89L119 88M219 88L219 89L222 89L219 88M111 89L111 90L114 90L111 89M115 89L115 90L118 90L115 89M128 89L129 90L128 89M130 89L131 90L130 89M132 89L133 90L132 89z"/>
<path style="fill:#021212; stroke:none;" d="M40 90L41 91L40 90z"/>
<path style="fill:#084f4f; stroke:none;" d="M123 90L124 91L123 90M125 90L126 91L125 90z"/>
<path style="fill:#021212; stroke:none;" d="M35 92L35 93L39 93L35 92z"/>
<path style="fill:#084f4f; stroke:none;" d="M110 92L111 93L110 92M125 92L126 93L125 92z"/>
<path style="fill:#021212; stroke:none;" d="M41 94L41 95L45 95L41 94z"/>
<path style="fill:#084f4f; stroke:none;" d="M96 94L96 151C96 155.235 93.9542 167.082 97.6034 169.972C106.027 176.644 121.637 166.748 131 175L114 172L112 176L118 180L107 177L104 179L104 180L107 181L105 185L101 184L105 193L102 192L101 197L124 197L127 187L134 188L130 185L134 179L145 181L145 182L138 189L138 193L135 192L133 197L164 197L168 191L166 192L166 191L187 190L187 191L182 192L182 193L189 193L189 194L185 194L185 195L188 195L188 196L184 196L184 197L191 197L192 205L196 205L196 206L191 206L191 239L181 239L185 243L185 244L180 244L181 248L178 247L179 250L159 256L158 256L156 254L155 257C150.619 255.442 145.014 259.928 144 254L145 257L146 257C147.879 253.037 149.839 252.725 154 253L154 252L144 251L146 242L145 242L145 244L144 244L147 240C136.156 236.795 114.844 236.795 104 240L105 245L103 245C101.545 253.742 95.1658 260.115 86 259L89 257L89 256L85 255L93 239C86.5381 234.811 90 214.276 90 207L89 207C87.7651 210.796 87.0591 213.023 83 214L85 217L85 221L82 220L81 226L82 223L78 225L80 229L72 229C71.0995 231.767 69.5167 233.307 73 234L73 235L70 243L66 242L64 247L63 247L64 244L63 243L59 244L59 245L62 245L62 246L59 246C57.1033 252.261 49.1698 259.942 43 262L46 260L47 253L43 256L36 257L31 254L32 249L31 249L30 253L27 250L29 252L30 252L28 246L29 246L30 248L31 245L30 242L25 247C24.9088 252.478 21.9222 252.942 17 253L17 269L25 269L21 293C33.85 291.102 51.95 280.11 52 266L118 266L118 294L107 294L104 315L105 316L113 315L107 319L107 320L110 320L110 321C104.662 322.526 99.3071 324.112 98 330L108 327L108 328L108 329C105.215 328.898 99.0575 330.454 102 334L102 335L97 338L100 337L99 344L101 348L114 350C112.329 353.283 112.071 355.85 116 357L116 358L114 361L120 362L115 365C114.5 367.913 113.877 369.317 117 370L117 371L113 370L115 375L119 375L118 378L122 385L123 385L123 355L152 355C152 361.17 149.228 376.83 154 381C154.624 376.229 159.813 378.451 162 381L155 380L157 383L152 382L159 386L152 385L153 387L147 387L147 386L150 386L150 385L134 387L129 386L129 387L130 389L130 390L133 388L136 390L130 391L131 393L127 393L127 394L131 394L131 395L128 395L128 396L132 396C131.477 398.54 131.405 398.685 134 399L134 400L130 400L130 401L132 401L132 402L129 403L133 404L133 405L127 404L126 408L132 407L132 408L127 409L127 410L151 411L153 414L156 412L149 415L149 416L151 417L149 419L158 417L152 419L152 420L157 420L157 421L149 422C150.197 423.978 153.44 426.308 154 423L159 424L159 425L143 427L143 428L154 428L154 429L145 430L145 431L179 427L179 426L172 426L172 425L196 423L196 424L180 425L180 426L187 426L187 427L158 430L160 432L160 433L145 434L145 435C161.007 439.599 184.203 430.347 201 430L204 433L210 429L207 425L211 427L210 424L225 421L225 420L219 418L226 419L226 418L221 418L221 417L225 416L225 415L170 414L170 404L165 404L165 403L170 403L170 400L164 400L170 397L169 354C192.628 348.375 218.75 359.092 241 348L241 347L233 346L237 340L236 339L234 341L233 338L235 336L238 337L240 333L239 335L240 335L241 333L216 331L216 251L214 249C211.502 249.5 203.391 239.098 207 240C206.619 236.638 206.565 234.947 210 234L210 230L215 234C218.192 223.201 211.182 205 218 196L218 195L215 193L214 187L233 189L233 190L228 190L228 191C239.614 195.577 248.459 196 261 196L261 195L252 191L252 190L259 190L252 187L248 179L236 175L236 174L240 174L240 173L177 173L177 151L162 150L162 151C165.854 151 168.673 151.309 168 154L176 155L176 156L145 153L145 156L146 156L151 155L151 156L148 157L148 158L154 158L154 159L146 157L142 159L142 170L97 170L97 118L96 94z"/>
<path style="fill:#a7d5d5; stroke:none;" d="M97 94L97 95L102 95L97 94z"/>
<path style="fill:#f8fbfb; stroke:none;" d="M97 95L97 170L141 170L141 95L97 95z"/>
<path style="fill:#a7d5d5; stroke:none;" d="M104 94L105 95L104 94M108 94L108 95L113 95L108 94M124 94L124 95L129 95L124 94M137 94L137 95L141 95L137 94z"/>
<path style="fill:#5db2b2; stroke:none;" d="M141 94L141 170L142 170L142 118L141 94z"/>
<path style="fill:#021212; stroke:none;" d="M48 96L48 97L53 96L48 96M56 95L56 96L61 96L56 95M54 96L53 99L47 98L47 99L54 100L54 96z"/>
<path style="fill:#084f4f; stroke:none;" d="M410 97C410 108.352 410.855 114.015 416 124L410 118L413 127C415.863 129.713 418.677 134.161 417 138L417 139L419 143L415 142C415.577 139.289 415.768 138.605 413 138L411 127L410 127L410 193L411 193L411 191L412 191L412 196L413 196L413 194L414 194L414 197L415 197L415 195L416 195L416 200L417 200L418 192L419 192L421 195L422 187L421 187L420 189L420 185L419 180L417 181C418.435 178.899 419.666 177.189 421 180L422 180L420 176L423 166L427 185L428 185L429 181L428 176L430 177L431 172L429 173L429 172L429 167L431 168L428 164L432 168L433 168L433 166L434 166L432 193L432 196L434 195L434 269L435 269L435 115L459 115L459 114L446 111L447 114L443 112C440.077 114.012 438.231 102.452 438 100L435 101L435 97L438 97L440 99L441 97L410 97M442 99L443 99C446.691 96.2036 451.515 97 456 97C466.174 97 492.593 92.1323 497 103L498 103L497 97L516 97C511.778 94.5672 503.941 96 499 96L459 96C454.519 96 443.12 93.7719 442 99z"/>
<path style="fill:#021212; stroke:none;" d="M23 97L23 98L29 100L29 99L23 97M43 97L44 98L43 97M45 97L46 98L45 97M56 97L57 98L56 97z"/>
<path style="fill:#084f4f; stroke:none;" d="M248 99L253 99L253 100L250 99L248 103L264 102L264 100L256 100L256 99L264 98C260.011 96.326 251.01 95.5559 248 99M300 97L300 98L314 100L314 102L300 103L300 104L315 104L315 105C308.266 103.772 302.006 104.737 296 108L297 111L303 110L303 111L299 111L299 112L304 112L304 113L299 117L310 119C306.714 130.775 306.149 154.967 313 165L311 165L311 167L321 172L321 174L310 173L309 174C310.423 178.873 315.122 186.157 312 191L312 198L317 203L317 204L315 206L313 203L312 203L312 261L313.229 283.397L326 285L324 290L327 291L328 296L322 297L324 300L319 302L322 302C320.246 309.596 318.993 315.768 312 320L312 331L303 331L303 332L312 332L314 334L314 335L309 335L309 336L312 336L312 337L304 336L304 337L306 337L306 338L297 339L294 343L294 344L298 343C298.545 346.634 303.02 345.317 306 345L306 346L304 346L304 347L308 348L308 349L299 347L299 348L304 351L304 352L300 352L300 353L313 353L313 379L318 379L318 380L312 381L312 414L313 414C313 407.331 311.081 398.153 316 393L313 390L325 389L325 390L315 391L315 392C317.533 392.476 321.489 394.047 322 391C326.38 392.247 329.192 391.84 330 387L313 389L313 388L330 386L330 344L327 344L327 338C331.215 337.092 329.553 331.672 330 328L321 329L324 321L321 321L321 320L325 318L325 317L323 317L323 316C324.806 315.805 327.929 315.273 325 314L325 313L329 314L330 201L330 174L328 163L328 162C332.324 158.279 331 149.274 331 144L330 144L330 151L323 148L324 144L320 141L323 141L323 140L320 139L320 138L321 127L328 131C325.167 135.414 328.828 138.532 330 143L331 143C330.304 134.178 334.071 118.24 329 111C331.291 108.276 332.436 99.9506 328 99L328 98L331 98L300 97z"/>
<path style="fill:#021212; stroke:none;" d="M420 97L420 100L423 100L420 97z"/>
<path style="fill:#084f4f; stroke:none;" d="M242.667 98.3333L243.333 98.6667L242.667 98.3333M245 98L246 99L245 98M295 98L295 99L299 99L295 98z"/>
<path style="fill:#021212; stroke:none;" d="M328.667 98.3333L329.333 98.6667L328.667 98.3333M55 99L56 100L55 99M254 99L255 100L254 99z"/>
<path style="fill:#084f4f; stroke:none;" d="M443 99L445 104L446 104L443 99z"/>
<path style="fill:#021212; stroke:none;" d="M26 101L27 102L26 101z"/>
<path style="fill:#084f4f; stroke:none;" d="M234 101L233 103L234 101M238 101L239 102L238 101M241 101L242 102L241 101M243 101L243 102L247 102L243 101z"/>
<path style="fill:#021212; stroke:none;" d="M327 101L327 102L330 103L327 101z"/>
<path style="fill:#084f4f; stroke:none;" d="M440 101L441 102L440 101M229 102L230 103L229 102z"/>
<path style="fill:#a7d5d5; stroke:none;" d="M331 102L331 227L331 263C331 267.692 329.786 274.426 331.603 278.826C334.383 285.559 346.259 291.279 352 295.424C369.847 308.311 389.479 329.107 410 337L410 210L410 175L408.972 160.174L386 142.116L331 102z"/>
<path style="fill:#021212; stroke:none;" d="M64 103L65 104L64 103M66 103L66 105L68 103L66 103M69 103L72 106L69 103z"/>
<path style="fill:#084f4f; stroke:none;" d="M250 103L251 104L250 103z"/>
<path style="fill:#5db2b2; stroke:none;" d="M330 103L331 104L330 103z"/>
<path style="fill:#084f4f; stroke:none;" d="M441 103L445 111L446 111L441 103z"/>
<path style="fill:#5db2b2; stroke:none;" d="M330 105L330 109L331 109L330 105z"/>
<path style="fill:#021212; stroke:none;" d="M422 105L423 106L422 105M422 107L423 108L422 107z"/>
<path style="fill:#084f4f; stroke:none;" d="M449 107L450 108L449 107z"/>
<path style="fill:#021212; stroke:none;" d="M68 109L67 112L73 112L73 111L68 109M70.6667 109.333L71.3333 109.667L70.6667 109.333M304 109L307 112L304 109M423.333 109.667L423.667 110.333L423.333 109.667z"/>
<path style="fill:#084f4f; stroke:none;" d="M450 109L451 110L450 109z"/>
<path style="fill:#021212; stroke:none;" d="M309 110L310 111L309 110z"/>
<path style="fill:#5db2b2; stroke:none;" d="M330.333 110.667L330.667 111.333L330.333 110.667z"/>
<path style="fill:#084f4f; stroke:none;" d="M441 110L443 112L441 110z"/>
<path style="fill:#021212; stroke:none;" d="M329 111L330 112L329 111M425 111L431 123L438 111L425 111z"/>
<path style="fill:#084f4f; stroke:none;" d="M451 111L452 112L451 111M256 113L257 114L256 113z"/>
<path style="fill:#021212; stroke:none;" d="M303 115L303 116L312 115L303 115M328 113L330 117L330 113L328 113z"/>
<path style="fill:#084f4f; stroke:none;" d="M428 113L429 114L428 113M308 114L309 115L308 114M461.667 114.333L462.333 114.667L461.667 114.333M467 114L468 115L467 114z"/>
<path style="fill:#021212; stroke:none;" d="M71 115L71 116L75 116L71 115M76 115L77 116L76 115z"/>
<path style="fill:#5db2b2; stroke:none;" d="M435 115L434 413L435 413L435 319C435 310.288 431.329 290.789 436.028 283.39C438.795 279.032 446.561 276.502 451 274.244C461.956 268.671 473.995 263.123 484 256L484 299L485 299L484 115L435 115z"/>
<path style="fill:#084f4f; stroke:none;" d="M484 115L484 165L485 165C485 150.951 489.409 127.89 484 115z"/>
<path style="fill:#021212; stroke:none;" d="M410 116L416 124L410 116M74 117L75 118L74 117M77.6667 117.333L78.3333 117.667L77.6667 117.333M80 118L81 119L80 118z"/>
<path style="fill:#a7d5d5; stroke:none;" d="M177 118L177 119L308 119L308 154L309 128L307.397 119.028L298 118L273 118L177 118z"/>
<path style="fill:#5db2b2; stroke:none;" d="M308 118L309 119L308 118z"/>
<path style="fill:#f8fbfb; stroke:none;" d="M177 119L177 173L308 173L308 119L177 119z"/>
<path style="fill:#021212; stroke:none;" d="M309 119L310 120L309 119M410 119L413 138L415 142L419 143L417 139L417 138C420.045 134.962 416.048 128.912 413 127L410 119M74 120L74 123L75 123L74 120M76.3333 120.667L76.6667 121.333L76.3333 120.667z"/>
<path style="fill:#084f4f; stroke:none;" d="M80 122L81 123L80 122M82 122L83 123L82 122z"/>
<path style="fill:#021212; stroke:none;" d="M329 123L327 127C329.649 126.432 330.355 125.412 329 123M433 123L434 126L433 123M309 124L310 125L309 124M416 124L415 127L418 127L416 124M75.6667 125.333L76.3333 125.667L75.6667 125.333M310 125L311 126L310 125M321 127L320 138L320 139L323 140L320 141L324 144L323 148L330 151L328 131L321 127z"/>
<path style="fill:#5db2b2; stroke:none;" d="M330 127L330 139L331 139L330 127z"/>
<path style="fill:#021212; stroke:none;" d="M67 130L68 131L67 130M418 131L419 132L418 131M39 132L40 133L39 132M411 134L412 135L411 134z"/>
<path style="fill:#084f4f; stroke:none;" d="M73 135L73 136L76 136L73 135z"/>
<path style="fill:#021212; stroke:none;" d="M412 136L413 137L412 136M41 138L42 139L41 138M419 138L420 139L419 138M412 139L412 140L415 140L415 139L412 139M318.667 140.333L319.333 140.667L318.667 140.333z"/>
<path style="fill:#084f4f; stroke:none;" d="M326 142L327 143L326 142M159 143L160 144L159 143M176 143L166 146L166 147L174 148L174 149L168 148L168 149L177 150L176 143z"/>
<path style="fill:#5db2b2; stroke:none;" d="M330 143L331 144L330 143z"/>
<path style="fill:#021212; stroke:none;" d="M416 143L417 144L416 143z"/>
<path style="fill:#5db2b2; stroke:none;" d="M55 144L55 172L56 172L55 144z"/>
<path style="fill:#a7d5d5; stroke:none;" d="M56 144L56 145L80 145L80 172L81 172L81 144L56 144z"/>
<path style="fill:#084f4f; stroke:none;" d="M162 144L162 146L164 146L164 144L162 144z"/>
<path style="fill:#f8fbfb; stroke:none;" d="M56 145L56 172L80 172L80 145L56 145z"/>
<path style="fill:#084f4f; stroke:none;" d="M159.667 145.333L160.333 145.667L159.667 145.333M165 145L166 146L165 145z"/>
<path style="fill:#021212; stroke:none;" d="M411.333 145.667L411.667 146.333L411.333 145.667z"/>
<path style="fill:#084f4f; stroke:none;" d="M326.667 146.333L327.333 146.667L326.667 146.333z"/>
<path style="fill:#021212; stroke:none;" d="M420 146L421 147L420 146z"/>
<path style="fill:#084f4f; stroke:none;" d="M164.667 147.333L165.333 147.667L164.667 147.333M158 149L159 150L158 149z"/>
<path style="fill:#021212; stroke:none;" d="M46 151L45 153L47 153L46 151M325 151L324 153L324 154L330 155L325 151z"/>
<path style="fill:#084f4f; stroke:none;" d="M161 152L161 153L165 153L161 152M166 152L167 153L166 152z"/>
<path style="fill:#021212; stroke:none;" d="M321.667 152.333L322.333 152.667L321.667 152.333z"/>
<path style="fill:#084f4f; stroke:none;" d="M153 153L154 154L153 153M166 154L167 155L166 154z"/>
<path style="fill:#5db2b2; stroke:none;" d="M308.333 154.667L308.667 155.333L308.333 154.667z"/>
<path style="fill:#021212; stroke:none;" d="M309.333 154.667L309.667 155.333L309.333 154.667M153 156L154 157L153 156z"/>
<path style="fill:#a7d5d5; stroke:none;" d="M308 156L308 161L309 161L308 156z"/>
<path style="fill:#5db2b2; stroke:none;" d="M330 156L330 413L331 413L331 232L331 180L330 156z"/>
<path style="fill:#021212; stroke:none;" d="M155 158L156 159L155 158M429 158L430 159L429 158M420 159L420 160L420 161L422 160L422 161L421 165L422 165L420 159M433 160L430 161L430 162L430 163L433 165L433 160z"/>
<path style="fill:#5db2b2; stroke:none;" d="M308 161L308 173L309 173L308 161z"/>
<path style="fill:#021212; stroke:none;" d="M309 161L309 173L236 174L236 175L248 179L252 187L259 190L252 190L252 191C271.158 202.18 294.657 189.617 314 198L312 191C315.838 186.643 310.807 178.478 309 174L310 173L321 174L321 172L311 167L313 165L309 161M327 161L328 162L327 161M142 162L143 163L142 162M328.667 162.333L329.333 162.667L328.667 162.333M428 164L431 168L429 167L429 168L429 173L431 172L431 173L430 177L428 176L429 181L428 185L427 185L423 166L420 176L422 180L421 180L421 177L417 181L419 180L419 181L420 185C419.699 186.592 419.647 190.113 421 187L422 187L421 195L419 192L418 192L417 200L416 200L416 195L415 195L415 197L414 197L414 194L413 194L413 196L412 196L412 191L411 191C406.338 210.591 410 234.87 410 255C410 262.353 408.512 273.751 413 280L411 284L412 284L415 277L413 278L415 276L413 271L414 271L418 275L416 292L419 291L420 285L421 285L420 288L426 286L425 289L429 286L430 286L427 306L431 305L429 303L429 302C434.622 298.5 433.678 287.15 433.718 281.259C433.854 260.843 434 240.423 434 220C434 215.974 435.758 196.626 432 196L432 193L434 194L434 166L433 166L433 168L432 168L428 164M418.333 167.667L418.667 168.333L418.333 167.667M428 169L429 170L428 169z"/>
<path style="fill:#084f4f; stroke:none;" d="M432 169L431 171L432 169z"/>
<path style="fill:#021212; stroke:none;" d="M144 170L142 171L142 172L144 170M146 172L147 173L146 172M419 172L420 173L419 172z"/>
<path style="fill:#084f4f; stroke:none;" d="M243 173L244 174L243 173z"/>
<path style="fill:#021212; stroke:none;" d="M139 177L145 179L149 175L139 177M424 174L425 175L424 174M426 174L425 179L426 179L426 174z"/>
<path style="fill:#084f4f; stroke:none;" d="M28 175L29 176L28 175z"/>
<path style="fill:#021212; stroke:none;" d="M119 175L120 176L119 175z"/>
<path style="fill:#084f4f; stroke:none;" d="M431 175L431 182L432 182L431 175z"/>
<path style="fill:#021212; stroke:none;" d="M121 176L122 177L121 176M418 176L419 177L418 176M134 179L130 185L134 188L127 187L124 197C129.292 196.996 132.544 197.163 135 192L138 193L138 189L145 182L134 179z"/>
<path style="fill:#084f4f; stroke:none;" d="M422 181L426 186L426 185C423.146 185 424.33 183.314 425 181L422 181M430 183L431 184L430 183z"/>
<path style="fill:#021212; stroke:none;" d="M170 185L171 186L170 185M173 185L174 186L173 185M214 187L215 193C221.678 197.511 230.234 196 238 196L238 195L228 191L228 190L233 190C227.798 185.531 220.385 185.113 214 187M417 186L418 187L417 186M230 187L231 188L230 187M174.667 188.333L175.333 188.667L174.667 188.333M165 189L166 190L165 189M166 192L168 191L163 195L163 196L188 196L188 195L185 195L185 194L189 194L189 193L182 193L182 192L187 191C182.308 189.031 169.311 187.542 166 192z"/>
<path style="fill:#084f4f; stroke:none;" d="M311 189L312 190L311 189z"/>
<path style="fill:#021212; stroke:none;" d="M414.333 189.667L414.667 190.333L414.333 189.667M418 189L419 190L418 189z"/>
<path style="fill:#084f4f; stroke:none;" d="M423 189L425 197L426 197L423 189M429 189L428 193L429 193L431 190L429 189z"/>
<path style="fill:#021212; stroke:none;" d="M187.667 191.333L188.333 191.667L187.667 191.333z"/>
<path style="fill:#084f4f; stroke:none;" d="M425 191L426 192L425 191M430 191L430 193L432 191L430 191z"/>
<path style="fill:#021212; stroke:none;" d="M416 192L416 195L417 195L416 192z"/>
<path style="fill:#084f4f; stroke:none;" d="M507 192L507 202L508 202L507 192M167 194L166 196L167 194M428 194L429 195L428 194z"/>
<path style="fill:#021212; stroke:none;" d="M42 195L43 196L42 195z"/>
<path style="fill:#084f4f; stroke:none;" d="M309 195L310 196L309 195M430 195L431 196L430 195z"/>
<path style="fill:#021212; stroke:none;" d="M120.667 196.333L121.333 196.667L120.667 196.333M162 196L163 197L162 196z"/>
<path style="fill:#a7d5d5; stroke:none;" d="M216 196L216 331L217 331L217 197L311 197L282 196L216 196z"/>
<path style="fill:#5db2b2; stroke:none;" d="M311 196L311 289L312 289L312 225L311 196z"/>
<path style="fill:#a7d5d5; stroke:none;" d="M90 197L91 198L90 197z"/>
<path style="fill:#f8fbfb; stroke:none;" d="M90 238L191 238L191 197L116 197C110.902 197 94.3982 194.348 91.0278 198.603C88.9543 201.221 90 206.878 90 210L90 238M217 197L217 331L311 331L311 197L217 197z"/>
<path style="fill:#084f4f; stroke:none;" d="M427 197L427 200L428 200L427 197M23 200L21 206L32 201.564L46 201C38.2206 196.864 31.005 199.623 23 200M418 198L418 201L419 201L418 198M422 198L423 199L422 198M21 200L22 201L21 200z"/>
<path style="fill:#021212; stroke:none;" d="M312 200L315 206L317 204L317 203L312 200z"/>
<path style="fill:#084f4f; stroke:none;" d="M410 201L411 202L410 201M424 201L425 202L424 201M31 204L32 205L31 204z"/>
<path style="fill:#021212; stroke:none;" d="M191 204L196 206L196 205L191 204M198 204L199 205L198 204z"/>
<path style="fill:#084f4f; stroke:none;" d="M26.6667 207.333L27.3333 207.667L26.6667 207.333M31 207L32 208L31 207M33 207L38 211L38 210L33 207M421 208L420 210L421 208M21.6667 211.333L22.3333 211.667L21.6667 211.333M86 211L87 212L86 211M84 212L85 213L84 212M82 213L83 214L82 213z"/>
<path style="fill:#021212; stroke:none;" d="M312 213L313 214L312 213z"/>
<path style="fill:#084f4f; stroke:none;" d="M503 216L503 220L504 220L503 216M74 220L75 221L74 220M77 220L78 221L77 220M503 221L504 222L503 221M71 223L72 224L71 223M76 223L78 225L76 223M74 226L73 229L74 229L74 226M71 227L72 228L71 227M25.6667 228.333L26.3333 228.667L25.6667 228.333z"/>
<path style="fill:#021212; stroke:none;" d="M209 229L210 230L209 229M210 230L210 234L207 233L207 240L205 240L215 252L216 233L210 230M212 230L213 231L212 230z"/>
<path style="fill:#084f4f; stroke:none;" d="M28 232L29 233L28 232z"/>
<path style="fill:#021212; stroke:none;" d="M206 232L207 233L206 232M79 234L80 235L79 234z"/>
<path style="fill:#084f4f; stroke:none;" d="M69 235L68 237L70 237L69 235M208 235L209 236L208 235M27.6667 236.333L28.3333 236.667L27.6667 236.333M31 236L32 237L31 236M27 238L27 239L32 240L27 238z"/>
<path style="fill:#5db2b2; stroke:none;" d="M90 238L90 239L191 239L160 238L90 238z"/>
<path style="fill:#084f4f; stroke:none;" d="M208 238L210 240L208 238M25 239L26 240L25 239M61 239L63 241L61 239z"/>
<path style="fill:#021212; stroke:none;" d="M93 239L85 255L89 256L89 257L86 259C95.1547 261.217 102.346 253.852 103 245L105 245L105 239L93 239z"/>
<path style="fill:#084f4f; stroke:none;" d="M94 239L94 241L96 239L94 239z"/>
<path style="fill:#021212; stroke:none;" d="M146 239L144 244L145 244L145 242L146 242L144 251L154 252L154 253C149.672 252.376 147.297 252.452 146 257L145 257L144 254C142.628 261.073 155.341 257.069 156 254L158 256L159 256L179 250L178 247L181 248L180 244L185 244C175.74 235.359 158.107 239 146 239z"/>
<path style="fill:#084f4f; stroke:none;" d="M174.667 239.333L175.333 239.667L174.667 239.333M59 240L60 241L59 240M25 241L25 244L27 244L27 241L25 241M31 242L32 243L31 242z"/>
<path style="fill:#021212; stroke:none;" d="M143 244L144 245L143 244z"/>
<path style="fill:#084f4f; stroke:none;" d="M25 245L26 246L25 245M58 245L59 246L58 245z"/>
<path style="fill:#021212; stroke:none;" d="M181.333 245.667L181.667 246.333L181.333 245.667M68 246L67 248L68 246z"/>
<path style="fill:#084f4f; stroke:none;" d="M47 248L47 249L51 249L47 248z"/>
<path style="fill:#021212; stroke:none;" d="M65 247L66 248L65 247z"/>
<path style="fill:#084f4f; stroke:none;" d="M30 248L31 249L30 248M55 248L56 249L55 248z"/>
<path style="fill:#021212; stroke:none;" d="M63 248L66 251L63 248z"/>
<path style="fill:#084f4f; stroke:none;" d="M153 249L154 250L153 249M44 250L44 251L47 251L44 250M155 250L155 253L156 253L157 250L155 250M37 254L38 254L41 252L37 254z"/>
<path style="fill:#021212; stroke:none;" d="M63 251L64 252L63 251M84 251L85 252L84 251M101 251L102 252L101 251z"/>
<path style="fill:#084f4f; stroke:none;" d="M47 252L48 253L47 252z"/>
<path style="fill:#021212; stroke:none;" d="M146 252L145 254L146 252M32.6667 255.333L33.3333 255.667L32.6667 255.333M38 256L39 257L38 256M83 256L84 257L83 256z"/>
<path style="fill:#a7d5d5; stroke:none;" d="M483 256L451 273.742L436.028 282.634L435 304L435 361L484 335L484 413L485 413L484.09 295L483 256z"/>
<path style="fill:#021212; stroke:none;" d="M156 257L157 258L156 257M43.6667 258.333L44.3333 258.667L43.6667 258.333M183 259L180 260L180 261L184 260L183 259M174 260L174 261L178 261L174 260M156 261L157 262L156 261z"/>
<path style="fill:#5db2b2; stroke:none;" d="M138 264L138 265L192 265L174 264L138 264z"/>
<path style="fill:#f8fbfb; stroke:none;" d="M138 265L138 323L192 323L192 265L138 265z"/>
<path style="fill:#a7d5d5; stroke:none;" d="M52 266L52 267L77 267L52 266z"/>
<path style="fill:#5db2b2; stroke:none;" d="M77 266L78 267L77 266z"/>
<path style="fill:#a7d5d5; stroke:none;" d="M78 266L79 267L78 266z"/>
<path style="fill:#5db2b2; stroke:none;" d="M79 266L79 267L89 267L79 266z"/>
<path style="fill:#a7d5d5; stroke:none;" d="M89 266L89 267L105 267L89 266z"/>
<path style="fill:#5db2b2; stroke:none;" d="M105 266L105 267L118 267L105 266z"/>
<path style="fill:#f8fbfb; stroke:none;" d="M52 267L52 293L118 293L118 267L52 267z"/>
<path style="fill:#084f4f; stroke:none;" d="M410 267L411 268L410 267M414.333 268.667L414.667 269.333L414.333 268.667M421 268L424 271L421 268z"/>
<path style="fill:#021212; stroke:none;" d="M192 269L192 279C196.057 277.682 196.429 274.974 197 271L196 269L192 269z"/>
<path style="fill:#084f4f; stroke:none;" d="M410 269L411 270L410 269M430 270L429 273L430 270M434 270L434 273L435 273L434 270M410 271L411 272L410 271M413 271L415 276L413 278L415 277L412 284L411 284L413 280L411 273L410 273L410 285L414 282L415 282L414 290L412 289L413 292L412 292L411 286L410 286L410 342L414 340L410 346L418 339L413 345L421 341L422 340L421 338L425 337L418 348L431 339L431 335L432 334L434 335C434 325.373 436.208 311.743 432 303L434 303L434 292L433 292L429 302L429 303L431 305L427 306L430 286L429 286L425 289L426 286L420 288L421 285L420 285L416 292L418 275L413 271M416 271L416 274L417 274L418 271L416 271M420 271L420 276L422 274L425 274L422 286L427 285L425 272L423 274L420 271M426.333 271.667L426.667 272.333L426.333 271.667M194 272L195 273L194 272z"/>
<path style="fill:#021212; stroke:none;" d="M127 273L128 274L127 273M197 273L198 274L197 273M197 275L197 278L198 278L197 275z"/>
<path style="fill:#084f4f; stroke:none;" d="M430 275L429 277L431 277L430 275z"/>
<path style="fill:#021212; stroke:none;" d="M128 278L131 283L130 290L130 291L134 291L131 293L131 294C132.87 294.342 136.052 295.11 134 297L134 298C139.539 296.813 137 280.972 137 276L128 278z"/>
<path style="fill:#084f4f; stroke:none;" d="M433 276L434 277L433 276M421 277L419 283L421 277M51 278L45 286L45 287L50 287L49 285L52 286L51 278z"/>
<path style="fill:#021212; stroke:none;" d="M312.333 279.667L312.667 280.333L312.333 279.667z"/>
<path style="fill:#084f4f; stroke:none;" d="M428 279L431 281L428 279z"/>
<path style="fill:#f8fbfb; stroke:none;" d="M331 280L331 413L410 413L410 361L409.397 338.325L388 321.29L331 280z"/>
<path style="fill:#084f4f; stroke:none;" d="M433 280L434 281L433 280M49 281L50 282L49 281M134 281L135 282L134 281z"/>
<path style="fill:#021212; stroke:none;" d="M192 281L192 288L196 281L192 281z"/>
<path style="fill:#084f4f; stroke:none;" d="M131 282L132 283L131 282z"/>
<path style="fill:#021212; stroke:none;" d="M414 282L410 285L412 292L413 292L412 289L414 290L414 289L414 282z"/>
<path style="fill:#084f4f; stroke:none;" d="M429 282L428 285L429 282M433.333 282.667L433.667 283.333L433.333 282.667z"/>
<path style="fill:#021212; stroke:none;" d="M312 283L312 320C319.573 316.832 321.31 309.639 322 302L319 302L324 300L322 297L328 296L327 291L324 290L326 285L312 283z"/>
<path style="fill:#084f4f; stroke:none;" d="M192 284L193 285L192 284z"/>
<path style="fill:#021212; stroke:none;" d="M27.3333 285.667L27.6667 286.333L27.3333 285.667M29 285L30 286L29 285M414 286L415 287L414 286z"/>
<path style="fill:#084f4f; stroke:none;" d="M43 287L42 289L43 287M47 287L48 288L47 287M133 287L132 289L133 287M433.333 287.667L433.667 288.333L433.333 287.667M311 289L312 290L311 289z"/>
<path style="fill:#5db2b2; stroke:none;" d="M311 290L312 291L311 290z"/>
<path style="fill:#021212; stroke:none;" d="M414 290L415 291L414 290z"/>
<path style="fill:#084f4f; stroke:none;" d="M417 290L418 291L417 290z"/>
<path style="fill:#021212; stroke:none;" d="M422 290L421 292L422 290M424 290L424 291L427 292L424 290z"/>
<path style="fill:#084f4f; stroke:none;" d="M311.333 291.667L311.667 292.333L311.333 291.667M36 292L35 294L36 292z"/>
<path style="fill:#021212; stroke:none;" d="M411 292L413 295L411 292z"/>
<path style="fill:#084f4f; stroke:none;" d="M52 293L52 294L106 294L88 293L52 293z"/>
<path style="fill:#5db2b2; stroke:none;" d="M106 293L106 294L118 294L106 293M311 293L312 294L311 293z"/>
<path style="fill:#021212; stroke:none;" d="M327 293L328 294L327 293M416 293L417 294L416 293M420 293L421 294L420 293M426.333 293.667L426.667 294.333L426.333 293.667z"/>
<path style="fill:#084f4f; stroke:none;" d="M311.333 294.667L311.667 295.333L311.333 294.667z"/>
<path style="fill:#021212; stroke:none;" d="M421 295L422 296L421 295M433 295L434 296L433 295z"/>
<path style="fill:#084f4f; stroke:none;" d="M28 296L29 297L28 296z"/>
<path style="fill:#5db2b2; stroke:none;" d="M311 296L312 297L311 296z"/>
<path style="fill:#021212; stroke:none;" d="M415 296L416 297L415 296z"/>
<path style="fill:#084f4f; stroke:none;" d="M311 297L312 298L311 297z"/>
<path style="fill:#021212; stroke:none;" d="M422 297L423 298L422 297M425 297L426 298L425 297z"/>
<path style="fill:#084f4f; stroke:none;" d="M22 298L24 300L24 298L22 298z"/>
<path style="fill:#5db2b2; stroke:none;" d="M311 298L311 331L312 331L311 298z"/>
<path style="fill:#021212; stroke:none;" d="M416 298L418 300L416 298M433 298L433 302L434 302L433 298M329 299L330 300L329 299M425 299L426 300L425 299M110 300L110 315L111 315L113 311L116 307L116 300L110 300z"/>
<path style="fill:#084f4f; stroke:none;" d="M428 303L429 304L428 303z"/>
<path style="fill:#021212; stroke:none;" d="M432 303L433 306L434 306L434 303L432 303M425 304L426 305L425 304M323.667 305.333L324.333 305.667L323.667 305.333M328 306L329 307L328 306M325.667 307.333L326.333 307.667L325.667 307.333M329 307L330 308L329 307M432 307L431 309L432 307M329 311L329 314L325 313L325 314L327 315L323 316L323 317L325 317L325 318L321 321L324 321L324 322L321 329C331.489 331.237 332.067 318.31 329 311z"/>
<path style="fill:#084f4f; stroke:none;" d="M97 314L98 315L97 314z"/>
<path style="fill:#021212; stroke:none;" d="M208 317L208 319L210 319L210 317L208 317M433 318L434 319L433 318M205 319L206 320L205 319z"/>
<path style="fill:#084f4f; stroke:none;" d="M323 319L324 320L323 319M103 321L103 322L107 321L103 321z"/>
<path style="fill:#021212; stroke:none;" d="M209 320L210 321L209 320M313 321L314 322L313 321M433 321L434 322L433 321z"/>
<path style="fill:#084f4f; stroke:none;" d="M101 322L102 323L101 322z"/>
<path style="fill:#021212; stroke:none;" d="M312 322L313 323L312 322z"/>
<path style="fill:#084f4f; stroke:none;" d="M98.6667 323.333L99.3333 323.667L98.6667 323.333z"/>
<path style="fill:#021212; stroke:none;" d="M207 323L208 330L210 330L207 323z"/>
<path style="fill:#084f4f; stroke:none;" d="M325.667 323.333L326.333 323.667L325.667 323.333M96 324L97 325L96 324z"/>
<path style="fill:#021212; stroke:none;" d="M205 325L204 332L205 332L205 325M211 325L212 326L211 325z"/>
<path style="fill:#084f4f; stroke:none;" d="M324 325L325 326L324 325z"/>
<path style="fill:#021212; stroke:none;" d="M160 327L160 328L166 328L160 327M312 326L313 327L312 326M178.667 327.333L179.333 327.667L178.667 327.333M181 327L182 328L181 327z"/>
<path style="fill:#084f4f; stroke:none;" d="M97 328L98 329L97 328z"/>
<path style="fill:#021212; stroke:none;" d="M158 329L161 332L158 329M161.667 329.333L162.333 329.667L161.667 329.333M164 330L165 331L164 330M329 330L330 331L329 330M208 331L209 332L208 331M230 331L230 332C233.362 332 239.382 330.783 240 335L239 335L240 333L239 333L238 337L235 336L233 338L234 341L236 339L237 340L233 346L241 347L241 348L233 352L233 353L304 352L304 351L301 351L299 348L299 347L308 349L308 348L304 347L304 346L306 346L306 345C302.078 345 297.119 346.526 298 343L294 344L294 343L297 339L306 338L306 337L304 337L304 336L312 337L312 336L309 336L309 335L314 335L314 334L312 332L230 331z"/>
<path style="fill:#084f4f; stroke:none;" d="M300.667 331.333L301.333 331.667L300.667 331.333z"/>
<path style="fill:#021212; stroke:none;" d="M328 331L329 332L328 331M421.667 331.333L422.333 331.667L421.667 331.333z"/>
<path style="fill:#084f4f; stroke:none;" d="M486 331L487 332L486 331z"/>
<path style="fill:#021212; stroke:none;" d="M210 332L211 333L210 332M212 332L213 335L211 334L212 339C209.716 338.986 208.982 340.611 211 342L211 343L207 343L207 344L211 344L211 345L208 345L208 349L213 348L213 349L210 349L210 350L217 348L213 347L213 346L216 346L216 345L214 345L214 344L217 344L217 343L218 337L221 338L223 332L212 332M329 332L330 333L329 332z"/>
<path style="fill:#084f4f; stroke:none;" d="M489 332L488 337L489 337L491 333L489 332z"/>
<path style="fill:#021212; stroke:none;" d="M158.667 333.333L159.333 333.667L158.667 333.333z"/>
<path style="fill:#084f4f; stroke:none;" d="M539.333 333.667L539.667 334.333L539.333 333.667M307 334L308 335L307 334z"/>
<path style="fill:#021212; stroke:none;" d="M329 334L330 335L329 334M426 334L427 335L426 334M315 335L316 336L315 335M417 335L414 340L417 335z"/>
<path style="fill:#084f4f; stroke:none;" d="M432 335L433 336L432 335z"/>
<path style="fill:#f8fbfb; stroke:none;" d="M483 335L450 352.755L436.028 361.39L435 376L435 413L484 413L484 359L483 335z"/>
<path style="fill:#084f4f; stroke:none;" d="M212 336L213 337L212 336M433 336L432 343L433 343L433 336z"/>
<path style="fill:#021212; stroke:none;" d="M157 340L163 341L163 340L160 339L164 339C161.115 337.092 159.366 337.546 157 340M426 337L427 338L426 337M308 338L309 339L308 338M327 338L327 344L330 344L330 338L327 338M433 338L434 339L433 338z"/>
<path style="fill:#084f4f; stroke:none;" d="M485 346L486 346L488 340L489 340L488 344L491 343L491 339C486.417 339.202 485.328 341.673 485 346z"/>
<path style="fill:#021212; stroke:none;" d="M301 339L301 340L304 340L301 339z"/>
<path style="fill:#084f4f; stroke:none;" d="M423 339L412 351L423 339M429 339L427 342L431 341L431 340L429 339z"/>
<path style="fill:#021212; stroke:none;" d="M410 344L414 340L410 344M429 340L430 341L429 340M156 341L157 342L156 341M232.667 341.333L233.333 341.667L232.667 341.333z"/>
<path style="fill:#084f4f; stroke:none;" d="M329 341L330 342L329 341z"/>
<path style="fill:#021212; stroke:none;" d="M105 342L106 343L105 342M161 342L162 343L161 342z"/>
<path style="fill:#084f4f; stroke:none;" d="M237.667 342.333L238.333 342.667L237.667 342.333z"/>
<path style="fill:#021212; stroke:none;" d="M419 342L414 348L419 342M102 343L103 344L102 343M231 343L232 344L231 343z"/>
<path style="fill:#084f4f; stroke:none;" d="M431 343L430 346L431 343z"/>
<path style="fill:#021212; stroke:none;" d="M164 344L165 345L164 344M300 344L301 345L300 344z"/>
<path style="fill:#084f4f; stroke:none;" d="M425 344L424 346L425 344M243 345L243 348L244 348L243 345M412 345L411 347L412 345M486 347L487 348L489 345L486 347z"/>
<path style="fill:#021212; stroke:none;" d="M232 346L233 347L232 346M307 346L308 347L307 346M329 346L330 347L329 346z"/>
<path style="fill:#084f4f; stroke:none;" d="M433.333 346.667L433.667 347.333L433.333 346.667z"/>
<path style="fill:#021212; stroke:none;" d="M158 347L159 348L158 347M237 347L238 348L237 347z"/>
<path style="fill:#084f4f; stroke:none;" d="M410 347L410 353L411 353L410 347M428 347L429 348L428 347M485 347L486 348L485 347z"/>
<path style="fill:#021212; stroke:none;" d="M113.667 348.333L114.333 348.667L113.667 348.333z"/>
<path style="fill:#084f4f; stroke:none;" d="M417 348L414 352L417 348M432 348L421 361C425.259 358 431.292 353.433 432 348M486 348L485 353L486 353L486 348M213.667 349.333L214.333 349.667L213.667 349.333z"/>
<path style="fill:#021212; stroke:none;" d="M134 352L139 351L134 352M304 350L304 351L307 351L304 350M211 352L212 353L211 352M229 352L230 353L229 352M231 352L232 353L231 352z"/>
<path style="fill:#084f4f; stroke:none;" d="M410 356L414 352L410 356M488 352L487 354L488 352z"/>
<path style="fill:#021212; stroke:none;" d="M141 353L142 354L141 353z"/>
<path style="fill:#5db2b2; stroke:none;" d="M170 353L170 402L171 402C171 388.212 175.309 365.652 170 353z"/>
<path style="fill:#f8fbfb; stroke:none;" d="M171 353L171 413L312 413L312 353L171 353z"/>
<path style="fill:#5db2b2; stroke:none;" d="M312 353L312 381L313 381L312 353z"/>
<path style="fill:#021212; stroke:none;" d="M166 354L167 355L166 354M169 354L170 355L169 354M115 355L116 356L115 355z"/>
<path style="fill:#f8fbfb; stroke:none;" d="M123 355L123 384L151 384L151 355L123 355z"/>
<path style="fill:#a7d5d5; stroke:none;" d="M151 355L151 384L123 384L123 385C130.148 385 143.246 387.563 149.682 384.397C154.538 382.007 152.864 359.443 151 355z"/>
<path style="fill:#084f4f; stroke:none;" d="M432 355L433 356L432 355z"/>
<path style="fill:#021212; stroke:none;" d="M163 356L164 357L163 356z"/>
<path style="fill:#084f4f; stroke:none;" d="M485 356L486 357L485 356M430 357L431 358L430 357M536 357L536 360L538 360L538 357L536 357M112 358L113 359L112 358z"/>
<path style="fill:#021212; stroke:none;" d="M165 358L165 359L168 359L165 358M116 359L117 360L116 359z"/>
<path style="fill:#084f4f; stroke:none;" d="M114 362L115 363L114 362M493 362L489 369L490 370L493 369L492 366L496 363L495 363L494 366L493 366L493 362M488 369L488 373C484.886 373.431 485.103 376.087 485 379L486 379L491 372L491 371L488 369M114 373L115 374L114 373z"/>
<path style="fill:#021212; stroke:none;" d="M118.667 373.333L119.333 373.667L118.667 373.333z"/>
<path style="fill:#084f4f; stroke:none;" d="M115 376L116 377L115 376z"/>
<path style="fill:#021212; stroke:none;" d="M121 376L122 377L121 376M160 377L160 378L163 378L160 377M152 381L152 382L157 383L155 380L162 381C159.393 375.726 155.235 378.843 152 381z"/>
<path style="fill:#084f4f; stroke:none;" d="M497 378L498 379L497 378z"/>
<path style="fill:#021212; stroke:none;" d="M313 379L313 380L318 380L313 379M326 379L327 380L326 379M320.667 380.333L321.333 380.667L320.667 380.333z"/>
<path style="fill:#084f4f; stroke:none;" d="M496 380L497 381L496 380z"/>
<path style="fill:#021212; stroke:none;" d="M313 381L313 382L317 382L313 381M159.333 382.667L159.667 383.333L159.333 382.667M162 382L163 383L162 382z"/>
<path style="fill:#5db2b2; stroke:none;" d="M312 382L312 385L313 385L312 382z"/>
<path style="fill:#084f4f; stroke:none;" d="M539 383L539 391L540 391L539 383M17 387L26 385C22.4755 383.525 19.1441 383.693 17 387z"/>
<path style="fill:#5db2b2; stroke:none;" d="M151 384L152 385L151 384z"/>
<path style="fill:#021212; stroke:none;" d="M152 384L152 385L159 386L152 384M316 384L317 385L316 384z"/>
<path style="fill:#084f4f; stroke:none;" d="M493 384L494 385L493 384z"/>
<path style="fill:#021212; stroke:none;" d="M142 385L142 386L145 386L142 385M147 386L147 387L153 387L147 386M166 385L167 386L166 385z"/>
<path style="fill:#5db2b2; stroke:none;" d="M312.333 386.667L312.667 387.333L312.333 386.667z"/>
<path style="fill:#021212; stroke:none;" d="M316 386L317 387L316 386M313 388L313 389L330 387L313 388M144 390L144 391L152 390L152 391L149 392L149 393L157 392L156 390L160 390L160 389L154 389L154 388L157 388L144 390M159.667 387.333L160.333 387.667L159.667 387.333z"/>
<path style="fill:#084f4f; stroke:none;" d="M126 388L127 389L126 388M128 388L129 389L128 388z"/>
<path style="fill:#021212; stroke:none;" d="M328 388L329 389L328 388z"/>
<path style="fill:#084f4f; stroke:none;" d="M19.6667 389.333L20.3333 389.667L19.6667 389.333z"/>
<path style="fill:#021212; stroke:none;" d="M161 389L162 390L161 389z"/>
<path style="fill:#5db2b2; stroke:none;" d="M312 389L313 390L312 389z"/>
<path style="fill:#084f4f; stroke:none;" d="M17.6667 391.333L18.3333 391.667L17.6667 391.333z"/>
<path style="fill:#021212; stroke:none;" d="M158 392L161 394L161 393L158 392M164 392L165 393L164 392z"/>
<path style="fill:#5db2b2; stroke:none;" d="M312.333 392.667L312.667 393.333L312.333 392.667z"/>
<path style="fill:#084f4f; stroke:none;" d="M433 392L434 393L433 392M539 392L540 393L539 392M15 393L16 394L15 393z"/>
<path style="fill:#021212; stroke:none;" d="M132 393L133 394L132 393z"/>
<path style="fill:#084f4f; stroke:none;" d="M328.667 393.333L329.333 393.667L328.667 393.333z"/>
<path style="fill:#021212; stroke:none;" d="M154 394L154 395L158 395L154 394z"/>
<path style="fill:#084f4f; stroke:none;" d="M324 394L325 395L324 394M539 395L540 396L539 395M30.6667 396.333L31.3333 396.667L30.6667 396.333M433 396L434 397L433 396z"/>
<path style="fill:#021212; stroke:none;" d="M157.667 397.333L158.333 397.667L157.667 397.333M164 400L170 400L170 397L164 400z"/>
<path style="fill:#084f4f; stroke:none;" d="M321 398L321 399L330 398L321 398z"/>
<path style="fill:#021212; stroke:none;" d="M161 398L162 399L161 398z"/>
<path style="fill:#084f4f; stroke:none;" d="M169 398L170 399L169 398M29 399L29 400L33 400L29 399z"/>
<path style="fill:#021212; stroke:none;" d="M155 399L150 400L150 401C152.404 401.695 155.127 402.172 155 399z"/>
<path style="fill:#084f4f; stroke:none;" d="M429 399L430 400L429 399M426 401L427 402L426 401z"/>
<path style="fill:#a7d5d5; stroke:none;" d="M170 402L171 403L170 402z"/>
<path style="fill:#084f4f; stroke:none;" d="M326 402L327 403L326 402z"/>
<path style="fill:#021212; stroke:none;" d="M165 403L165 404L170 404L165 403z"/>
<path style="fill:#5db2b2; stroke:none;" d="M170 403L171 404L170 403z"/>
<path style="fill:#a7d5d5; stroke:none;" d="M170.333 404.667L170.667 405.333L170.333 404.667z"/>
<path style="fill:#021212; stroke:none;" d="M149 405L150 406L149 405M152 405L153 406L152 405M155 405L156 406L155 405z"/>
<path style="fill:#084f4f; stroke:none;" d="M124 406L125 407L124 406z"/>
<path style="fill:#5db2b2; stroke:none;" d="M170 406L171 407L170 406z"/>
<path style="fill:#a7d5d5; stroke:none;" d="M170.333 407.667L170.667 408.333L170.333 407.667z"/>
<path style="fill:#5db2b2; stroke:none;" d="M170 409L170 414L171 414L170 409z"/>
<path style="fill:#084f4f; stroke:none;" d="M325 409L325 410L330 410L325 409M125.667 410.333L126.333 410.667L125.667 410.333z"/>
<path style="fill:#a7d5d5; stroke:none;" d="M171 413L171 414L312 414C301.02 409.393 281.944 413 270 413L171 413z"/>
<path style="fill:#084f4f; stroke:none;" d="M331 413L331 414L410 414L385 413L331 413M434 413L434 414L457 414L434 413z"/>
<path style="fill:#5db2b2; stroke:none;" d="M457 413L457 414L460 414L457 413z"/>
<path style="fill:#084f4f; stroke:none;" d="M460 413L460 414L474 414L460 413z"/>
<path style="fill:#5db2b2; stroke:none;" d="M474 413L474 414L484 414L474 413z"/>
<path style="fill:#084f4f; stroke:none;" d="M484 413L485 414L484 413z"/>
<path style="fill:#021212; stroke:none;" d="M195 414L195 415L200 415L195 414z"/>
<path style="fill:#084f4f; stroke:none;" d="M467 419L469 420L469 421L465 421L465 422L467 423L464 425L465 426L478 414L467 419z"/>
<path style="fill:#021212; stroke:none;" d="M187 415L187 416L192 416L187 415z"/>
<path style="fill:#084f4f; stroke:none;" d="M226 415L227 416L226 415z"/>
<path style="fill:#021212; stroke:none;" d="M178 416L178 417L182 417L178 416M193 416L193 417L196 417L196 416L193 416z"/>
<path style="fill:#084f4f; stroke:none;" d="M92 417L92 418L96 418L92 417z"/>
<path style="fill:#021212; stroke:none;" d="M171 417L172 418L171 417M183 417L184 418L183 417M199.333 417.667L199.667 418.333L199.333 417.667M192.667 419.333L193.333 419.667L192.667 419.333z"/>
<path style="fill:#084f4f; stroke:none;" d="M147 420L147 421L151 421L147 420z"/>
<path style="fill:#021212; stroke:none;" d="M168 421L168 422L182 421L168 421M184 420L185 421L184 420z"/>
<path style="fill:#084f4f; stroke:none;" d="M226 420L227 421L226 420z"/>
<path style="fill:#021212; stroke:none;" d="M189 421L189 422L196 422L189 421z"/>
<path style="fill:#084f4f; stroke:none;" d="M93 422L89 423L89 424L94 423L93 422z"/>
<path style="fill:#021212; stroke:none;" d="M161 422L161 423L165 423L161 422M180 422L180 423L186 423L180 422z"/>
<path style="fill:#084f4f; stroke:none;" d="M217.333 422.667L217.667 423.333L217.333 422.667M220 422L221 423L220 422M225 422L226 423L225 422M402 422L403 423L402 422M464 422L465 423L464 422z"/>
<path style="fill:#021212; stroke:none;" d="M170 424L170 425L178 424L170 424z"/>
<path style="fill:#084f4f; stroke:none;" d="M245 423L245 424L248 424L245 423M399 423L400 424L399 423z"/>
<path style="fill:#021212; stroke:none;" d="M162 424L163 425L162 424z"/>
<path style="fill:#084f4f; stroke:none;" d="M232 424L233 425L232 424M235 424L235 425L239 425L235 424M146.667 425.333L147.333 425.667L146.667 425.333M219 425L219 426L229 426L219 425z"/>
<path style="fill:#021212; stroke:none;" d="M164 426L164 427L171 427L164 426z"/>
<path style="fill:#084f4f; stroke:none;" d="M463 426L461 429L463 426z"/>
<path style="fill:#021212; stroke:none;" d="M156 427L156 428L162 428L156 427z"/>
<path style="fill:#084f4f; stroke:none;" d="M230 427L231 428L230 427M387 427L388 428L387 427M87 428L87 430L93 429L87 428M105 428L106 429L105 428z"/>
<path style="fill:#021212; stroke:none;" d="M190 428L190 429L194 429L190 428z"/>
<path style="fill:#084f4f; stroke:none;" d="M215.667 428.333L216.333 428.667L215.667 428.333M218.667 428.333L219.333 428.667L218.667 428.333M364 433L364 434L386 429L364 433M99.6667 429.333L100.333 429.667L99.6667 429.333z"/>
<path style="fill:#021212; stroke:none;" d="M182 429L182 430L189 430L182 429z"/>
<path style="fill:#084f4f; stroke:none;" d="M93 430L93 431L96 431L93 430z"/>
<path style="fill:#021212; stroke:none;" d="M174 430L174 431L179 431L174 430z"/>
<path style="fill:#084f4f; stroke:none;" d="M83 434L83 435L102 432L83 434z"/>
<path style="fill:#021212; stroke:none;" d="M161.667 431.333L162.333 431.667L161.667 431.333M166 431L166 432L169 432L166 431z"/>
<path style="fill:#084f4f; stroke:none;" d="M186 432L186 433L197 433L197 434L151 439L151 440L160 439L160 440L136 443L136 444L157 442.155L201 437L201 436L197 435L197 431L186 432M206 431L207 432L206 431M247 431L248 432L247 431M533 431L534 432L533 431M535 431L538 437L539 437L535 431M230 432L230 433L238 433L230 432M322 432L323 433L322 432M456 432L457 433L456 432M218 433L218 434L223 434L218 433M226.667 433.333L227.333 433.667L226.667 433.333M313.667 433.333L314.333 433.667L313.667 433.333M171.667 434.333L172.333 434.667L171.667 434.333M210 434L211 435L210 434M214 434L215 435L214 434M294 434L294 435L302 435L294 434M82 438L82 439L87 439L87 440L75 444L75 445L86 443L85 441L99 439L99 438L93 438L93 437L104 436L82 438z"/>
<path style="fill:#021212; stroke:none;" d="M194 435L189 436L189 437L194 435z"/>
<path style="fill:#084f4f; stroke:none;" d="M220.667 435.333L221.333 435.667L220.667 435.333M533 435L535 437L533 435M268 436L269 437L268 436M144 437L145 438L144 437z"/>
<path style="fill:#021212; stroke:none;" d="M169 438L169 439L188 438L169 438z"/>
<path style="fill:#084f4f; stroke:none;" d="M387 437L388 438L387 437z"/>
<path style="fill:#021212; stroke:none;" d="M87 438L87 439L93 439L87 438M160 438L160 439L168 440L168 439L160 438z"/>
<path style="fill:#084f4f; stroke:none;" d="M283 438L284 439L283 438M383.667 438.333L384.333 438.667L383.667 438.333M521 444L521 445L533 446L533 450L539 450L540 450L540 439L536 440L535 443L534 443L534 438L521 444M537 438L538 439L537 438M77 439L78 440L77 439M226 439L226 440L228 440L228 441L202 443L202 446L189 447L189 448L213 446L213 445L204 445L204 444L242 441L242 442L222 444L222 445L253 443L253 444L227 447L227 448L253 448L253 445L258 444L258 442L254 441L256 440L226 439M263 439L263 440L275 440L263 439M379.667 439.333L380.333 439.667L379.667 439.333M100 440L100 441L104 441L100 440M189 440L189 441L197 441L189 440M375.667 440.333L376.333 440.667L375.667 440.333M443 440L442 442L443 440M93 441L93 442L98 442L93 441M180 441L180 442L183 442L180 441M259 442L259 443C262.748 444.006 266.497 444.317 269 441L259 442M371 441L372 442L371 441M87 442L87 443L90 443L87 442M300 445L300 446L332 443C324.854 440.029 307.429 442.804 300 445M440 442L441 443L440 442M84 447C79.5723 446.051 72.8008 446.156 70 450C74.7358 450 89.2938 450.645 90 445L97 444C94.0191 442.698 84.5721 443.495 84 447M159 443L159 444L164 444L159 443M438 443L436 444L436 445L438 443z"/>
<path style="fill:#021212; stroke:none;" d="M536 443L537 444L536 443z"/>
<path style="fill:#084f4f; stroke:none;" d="M137 446L137 447L157 445L137 446M181 444L182 445L181 444M197 444L197 445L200 445L197 444M218.667 444.333L219.333 444.667L218.667 444.333M369 445L369 446L374 445L369 445M375 444L375 445L378 445L375 444M417 444L418 445L417 444M418 449L418 450L436 445L431 446L432 444L418 449M171 445L171 446L177 446L171 445M214 445L215 446L214 445M344 449L344 450C350.221 449.983 363.816 449.973 368 445L344 449M415 445L416 446L415 445M520 445L519 447L521 447L520 445M140 449L140 450L168 447L140 449M412 446L413 447L412 446M132 447L132 448L136 448L132 447M223 447L224 448L223 447M301 447L302 448L301 447M410 447L411 448L410 447M526.667 447.333L527.333 447.667L526.667 447.333M67.6667 448.333L68.3333 448.667L67.6667 448.333M98.6667 448.333L99.3333 448.667L98.6667 448.333M127.667 448.333L128.333 448.667L127.667 448.333M207 448L207 449L212 449L207 448M274 449L274 450L279 449L274 449M303 448L304 449L303 448M386 448L386 450L388 448L386 448M407 448L408 449L407 448z"/>
<path style="fill:#021212; stroke:none;" d="M536 448L536 450L539 450L539 448L536 448z"/>
<path style="fill:#084f4f; stroke:none;" d="M92.6667 449.333L93.3333 449.667L92.6667 449.333M194 449L194 450L197 450L194 449M248 449L248 450L254 450L248 449M269 449L269 450L272 450L269 449M298.667 449.333L299.333 449.667L298.667 449.333M379 449L379 450L383 450L379 449M404 449L405 450L404 449z"/>
</svg>
